<?xml version="1.0" encoding="utf-8"?>
<!-- Generator: Adobe Illustrator 13.0.0, SVG Export Plug-In . SVG Version: 6.00 Build 14948)  -->
<!DOCTYPE svg PUBLIC "-//W3C//DTD SVG 1.1//EN" "http://www.w3.org/Graphics/SVG/1.1/DTD/svg11.dtd">
<svg version="1.1" id="Livello_1" xmlns="http://www.w3.org/2000/svg" xmlns:xlink="http://www.w3.org/1999/xlink" x="0px" y="0px"
	 width="100px" height="100px" viewBox="0 0 100 100" enable-background="new 0 0 100 100" xml:space="preserve">
<path fill="#231F20" d="M76.186,37.112c0,0,6.921-0.255,4.469-4.982c0,0-2.801-6.742-12.257-7.268c0,0-5.71-0.43-4.554,4.744
	c0,0,0.788,4.362,6.044,6.902C69.888,36.507,70.586,37.886,76.186,37.112z M31.51,34.33c0,0-3.271-2.444-1.139-6.733
	c0,0,2.479-5.08,10.708-2.787c0,0,5.435,2.438,6.217,5.674c0,0-0.526,5.295-10.68,5.755C36.617,36.239,32.749,35.836,31.51,34.33z
	 M77.621,53.175c0,0,8.617-11.75-7.843-11.052c0,0-9.186,1.349-10.369,11.052c0,0,2.489,8.445,8.968,5.306
	C68.377,58.48,74.782,57.306,77.621,53.175z M21.095,46.253c0,0-8.237-4.082-4.209-10.386c0,0,8.928-5.938,12.253,6.662
	C29.139,42.53,29.066,49.11,21.095,46.253z M29.826,50.781c0,0-1.14,4.462,4.029,6.126c0,0,3.217,1.244,10.205,1.141
	c0,0,5.378-0.438,5.203-5.604c0,0-0.088-5.078-6.218-6.216c0,0-4.64-1.05-9.453,0.526C33.592,46.752,31.49,47.193,29.826,50.781z
	 M44.633,62.347c0,0-7.526,0.087-10.066,4.902c0,0-2.013,5.076,2.803,5.692c0,0,5.515,1.14,5.602,1.575c0,0,7.179,2.1,9.717-4.73
	C52.689,69.786,54.177,62.259,44.633,62.347z M64.907,66.834c0,0-3.24,4.202,0,7.878c0,0,2.978,2.626,6.303,1.489
	c0,0,5.775-4.376,6.04-9.982c0,0-0.349-3.789-3.239-4.741C74.011,61.478,67.971,59.305,64.907,66.834z M86.842,54.96
	c0,0,2.19-7.627,8.318-5.126c0,0,4.378,3.361,2.362,9.844c0,0-1.75,7.89-7.527,7.014C89.995,66.69,84.565,66.954,86.842,54.96z
	 M48.243,44.032c0,0,6.405,5.428,11.482-2.937c0,0,5.079-6.442,0-10.646c0,0-6.642-2.791-10.33,4.378
	C49.396,34.827,44.83,40.605,48.243,44.032z M12.101,49.296c0,0,9.689-2.338,10.971,4.959c0,0,0.349,6.072-8.52,6.57
	c0,0-8.17-0.161-10.39-4.501C4.162,56.324,2.179,49.881,12.101,49.296z M24.277,67.559c0,0,9.698,2.298,7.54,9.39
	c0,0-2.438,5.571-10.57,1.999c0,0-7.215-3.84-7.229-8.715C14.018,70.232,15.165,63.589,24.277,67.559z"/>
</svg>
