<?xml version="1.0" encoding="utf-8"?>
<!-- Generator: Adobe Illustrator 13.0.0, SVG Export Plug-In . SVG Version: 6.00 Build 14948)  -->
<!DOCTYPE svg PUBLIC "-//W3C//DTD SVG 1.1//EN" "http://www.w3.org/Graphics/SVG/1.1/DTD/svg11.dtd">
<svg version="1.1" id="Your_Icon" xmlns="http://www.w3.org/2000/svg" xmlns:xlink="http://www.w3.org/1999/xlink" x="0px" y="0px"
	 width="100px" height="100px" viewBox="0 0 100 100" enable-background="new 0 0 100 100" xml:space="preserve">
<path d="M98.5,47.5C96.5,45.5,81,35,62,35c-2.123,0-4.188,0.126-6.212,0.326L39,26c0,4.506,1.269,9.012,2.377,12.088
	C31.669,40.694,23.278,44,16,44L0,34c0,8,4,16,4,16s-4,8-4,16l16-10c7.278,0,15.669,3.307,25.377,5.912
	C40.269,64.988,39,69.494,39,74l16.787-9.326C57.812,64.873,59.877,65,62,65c19,0,34.5-10.5,36.5-12.5S100.492,49.492,98.5,47.5z"/>
</svg>
