<?xml version="1.0" encoding="utf-8"?>
<!-- Generator: Adobe Illustrator 13.0.0, SVG Export Plug-In . SVG Version: 6.00 Build 14948)  -->
<!DOCTYPE svg PUBLIC "-//W3C//DTD SVG 1.1//EN" "http://www.w3.org/Graphics/SVG/1.1/DTD/svg11.dtd">
<svg version="1.1" id="Layer_1" xmlns="http://www.w3.org/2000/svg" xmlns:xlink="http://www.w3.org/1999/xlink" x="0px" y="0px"
	 width="85.047px" height="100px" viewBox="0 0 85.047 100" enable-background="new 0 0 85.047 100" xml:space="preserve">
<path fill="#010101" d="M81.676,83.381c-0.156-0.304-1.391-2.081-2.744-3.954c-2.81-3.888-5.285-8.504-7.041-13.137
	c-0.463-1.216-1.63-3.089-3.618-5.795c-1.184-1.611-2.182-2.715-3.634-4.013c-1.103-0.986-2.407-2.258-2.898-2.826
	c-1.577-1.827-3.009-3.848-2.908-4.11c0.054-0.139,0.657-0.425,1.343-0.632c1.915-0.584,2.795-1.246,4.208-3.166
	c2.719-3.695,3.195-4.666,4.058-8.279c1.453-6.088,3.263-8.975,8.065-12.871c1.482-1.201,1.779-1.527,1.779-1.952
	c0-0.67-0.576-1.191-1.155-1.046c-0.621,0.156-2.421,1.516-4.068,3.075c-3.6,3.405-5.475,6.789-6.624,11.962
	c-0.621,2.793-1.317,4.338-3.08,6.811c-0.879,1.233-1.874,2.43-2.214,2.66c-0.549,0.369-2.124,0.915-3.496,1.211
	c-0.714,0.154-0.997-0.247-1.242-1.76c-0.119-0.73-0.334-1.664-0.479-2.077c-0.623-1.778-0.541-2.75,0.333-3.898
	c1.412-1.856,4.948-7.67,5.768-9.482c1.687-3.734,1.04-7.12-2.473-12.923c-0.447-0.74-0.929-1.669-1.066-2.064
	c-0.619-1.751-0.506-4.175,0.31-6.67c0.349-1.066,0.354-1.177,0.08-1.595c-0.359-0.549-1.056-0.59-1.552-0.095
	c-0.887,0.888-1.512,4.467-1.251,7.168c0.159,1.639,0.627,2.801,2.133,5.306c2.44,4.055,3.08,6.753,2.181,9.182
	c-0.729,1.971-5.059,8.981-5.697,9.228c-0.136,0.052-0.632-0.27-1.104-0.715c-1.006-0.948-2.17-1.575-3.64-1.959
	c-0.58-0.151-1.098-0.318-1.148-0.368c-0.051-0.052,0.413-0.15,1.033-0.22c0.904-0.102,1.271-0.248,1.86-0.74
	c0.548-0.458,0.908-0.614,1.421-0.614c0.59,0,0.81-0.13,1.546-0.918c0.472-0.504,1.078-1.386,1.346-1.959
	c0.427-0.913,0.488-1.27,0.488-2.866c0-1.684-0.046-1.915-0.586-3.021c-1.435-2.929-4.858-4.778-8.214-4.436
	c-1.231,0.125-1.685-0.058-1.685-0.682c0-0.27-0.092-0.322-0.422-0.24c-0.332,0.083-0.468,0.003-0.645-0.384
	c-0.215-0.473-0.234-0.479-0.581-0.165c-0.331,0.301-0.382,0.303-0.688,0.026c-0.305-0.277-0.352-0.275-0.641,0.014
	c-0.27,0.271-0.364,0.279-0.709,0.062c-0.357-0.222-0.428-0.208-0.658,0.14c-0.142,0.214-0.339,0.39-0.437,0.39
	c-0.097,0-0.396,0.231-0.662,0.514c-0.424,0.45-0.627,0.518-1.641,0.545c-3.047,0.08-5.805,1.769-7.058,4.322
	c-0.489,0.998-0.535,1.255-0.535,3.006s0.046,2.003,0.53,2.962c0.292,0.577,0.895,1.418,1.34,1.869
	c0.649,0.658,0.934,0.821,1.438,0.821c0.425,0,0.76,0.14,1.031,0.429c0.591,0.631,0.994,0.789,2.407,0.94l1.276,0.137l-1.608,0.524
	c-1.879,0.61-2.858,1.235-4.022,2.566l-0.843,0.964l-0.553-0.638c-0.304-0.351-1.111-1.418-1.793-2.37
	c-4.055-5.658-5.325-9.387-4.158-12.216c0.227-0.551,1.225-2.274,2.217-3.828c2.199-3.448,2.682-4.69,2.794-7.197
	c0.085-1.894-0.25-5.973-0.537-6.52c-0.262-0.499-0.828-0.731-1.246-0.507C28.889,5.689,28.842,6.066,29.149,9
	c0.456,4.353,0.211,5.272-2.544,9.593c-2.478,3.883-2.74,4.546-2.729,6.954c0.005,1.592,0.089,2.153,0.495,3.332
	c1.207,3.494,4.064,8.059,7.177,11.467c0.738,0.807,0.922,1.125,0.843,1.459c-0.057,0.234-0.337,1.28-0.625,2.327
	c-0.287,1.045-0.523,2.114-0.523,2.375c0,0.688-0.483,1.286-1.042,1.286c-0.465,0-2.215-0.874-3.557-1.775
	c-0.651-0.436-2.674-2.792-3.93-4.578c-0.329-0.466-1.199-1.997-1.934-3.401c-2.722-5.202-4.852-8.59-7.85-12.49
	c-2.427-3.156-2.374-3.099-2.969-3.099c-0.675,0-0.961,0.297-0.961,0.994C9,23.866,9.436,24.569,10.812,26.37
	c3.322,4.347,5.914,8.449,8.125,12.861c1.166,2.328,2.2,3.896,3.949,5.987c1.697,2.029,2.489,2.711,4.202,3.611
	c1.518,0.797,1.55,1.008,0.394,2.62c-1.2,1.676-2.198,2.662-3.351,3.318c-0.969,0.551-1.848,1.303-3.997,3.418
	c-0.948,0.935-1.385,1.521-3.99,5.369c-1.255,1.854-2.359,4.052-3.76,7.485c-2.089,5.121-3.718,7.507-6.458,9.463
	c-1.502,1.072-1.507,1.077-1.452,1.822c0.051,0.712,0.085,0.75,0.697,0.801c0.497,0.043,0.9-0.11,1.777-0.678
	c3.132-2.025,5.251-5.05,7.483-10.679c1.09-2.752,2.317-5.193,3.454-6.875c0.563-0.832,1.35-2.004,1.749-2.606
	c0.779-1.175,1.738-2.278,1.981-2.278c0.157,0,0.133,0.06-1.28,3.189c-0.499,1.104-1.246,3.031-1.661,4.286
	c-0.416,1.253-0.828,2.442-0.916,2.644c-1.023,2.339-1.624,10.463-1.004,13.545c0.614,3.045,2.225,5.35,4.489,6.42
	c1.627,0.771,2.843,0.972,5.165,0.86c2.358-0.114,3.818-0.525,5.625-1.584c0.688-0.403,1.316-0.693,1.397-0.644
	c0.081,0.052,0.601,0.774,1.157,1.608c1.184,1.779,3.372,3.93,4.666,4.586c1.036,0.524,2.613,1.123,3.291,1.252h0.001
	c1.379,0.259,3.93-0.479,5.785-1.673c1.148-0.739,2.504-2.14,3.917-4.041c0.772-1.041,1.29-1.57,1.573-1.611
	c0.238-0.034,1.149,0.308,2.094,0.781c2.193,1.102,3.8,1.435,6.414,1.327c1.462-0.059,2.281-0.188,3.027-0.475
	c2.46-0.947,4.12-2.784,5.009-5.539c0.874-2.714,0.78-8.398-0.211-12.964c-0.214-0.986-1.902-6.178-2.543-7.821
	c-0.262-0.669,0.385-0.296,0.947,0.548c0.708,1.064,1.101,1.853,1.969,3.965c0.371,0.902,1.395,3.117,2.276,4.923
	c1.359,2.789,2.017,3.864,4.377,7.163c1.527,2.134,2.978,4.013,3.223,4.174C81.366,85.555,82.247,84.482,81.676,83.381z
	 M38.093,64.787c-0.063,0.628-0.193,1.637-0.286,2.238c-0.095,0.602-0.303,2.16-0.464,3.464c-0.161,1.305-0.542,3.602-0.845,5.105
	c-1.638,8.104-4.597,12.334-9.245,13.214c-2.251,0.429-3.883,0.065-5.249-1.162c-1.879-1.688-2.505-3.693-2.481-7.949
	c0.024-4.377,0.909-8.747,2.548-12.576c0.452-1.055,1.105-2.678,1.454-3.606c0.77-2.047,1.749-3.844,3.773-6.92
	c3.147-4.78,4.105-6.034,4.449-5.821c0.097,0.059,0.279,0.623,0.4,1.253c0.777,3.968,2.803,8.082,5.327,10.82
	C38.209,63.643,38.209,63.643,38.093,64.787z M67.651,75.386c0.396,2.544,0.394,6.775-0.009,8.322
	c-0.688,2.646-2.133,4.459-3.995,5.013h0.002c-2.328,0.69-5.431-0.095-7.6-1.922c-2.104-1.775-4.245-6.333-5.1-10.859
	c-0.381-2.015-1.121-7.071-1.384-9.442l-0.282-2.535l1.248-1.295c2.405-2.495,3.869-5.277,4.947-9.397
	c0.274-1.046,0.588-1.934,0.697-1.971c0.228-0.074,1.668,1.824,3.723,4.911c2.125,3.193,3.159,5.091,4.098,7.523
	c0.468,1.209,1.159,2.897,1.539,3.749C66.311,69.218,67.216,72.605,67.651,75.386z"/>
</svg>
