<?xml version="1.0" encoding="utf-8"?>
<!-- Generator: Adobe Illustrator 13.0.0, SVG Export Plug-In . SVG Version: 6.00 Build 14948)  -->
<!DOCTYPE svg PUBLIC "-//W3C//DTD SVG 1.1//EN" "http://www.w3.org/Graphics/SVG/1.1/DTD/svg11.dtd">
<svg version="1.1" id="Your_Icon" xmlns="http://www.w3.org/2000/svg" xmlns:xlink="http://www.w3.org/1999/xlink" x="0px" y="0px"
	 width="100px" height="100px" viewBox="0 0 100 100" enable-background="new 0 0 100 100" xml:space="preserve">
<path stroke="#231F20" stroke-width="20" stroke-miterlimit="10" d="M46.69,74.926"/>
<path stroke="#231F20" stroke-width="20" stroke-miterlimit="10" d="M46.69,25.052"/>
<path d="M24.333,100h-7.448c0-6.133,0.605-12.06,6.468-17.141c5.637-4.887,13.401-8.645,22.456-10.869
	c14.739-3.718,24.29-12.306,24.29-21.865c0-9.496-10.056-18.348-25.021-22.027C26.422,23.393,17.402,12.466,17.402,0.25h6.93
	c0,9.56,9.55,18.146,24.332,21.875c9.013,2.215,16.778,5.974,22.415,10.859c5.862,5.082,8.961,11.008,8.961,17.142
	c0,12.215-12.03,23.143-30.646,27.838C34.387,81.651,24.333,90.504,24.333,100z"/>
<path d="M77.273,91.354c1.392,2.778,0.772,5.535,0.772,8.479L70.099,100c0-2.759-0.85-5.463-2.421-8.002
	c-3.836-6.201-11.983-11.415-22.6-14.025C26.422,73.268,14.391,62.34,14.391,50.125c0-6.133,3.098-12.06,8.96-17.142
	c5.637-4.886,13.401-8.644,22.454-10.87C60.547,18.396,70.099,9.81,70.099,0.25l7.431-0.166c0,12.216-9.521,23.309-28.137,28.004
	c-15.006,3.689-25.06,12.541-25.06,22.037c0,9.561,9.55,18.147,24.33,21.875c9.016,2.215,16.778,5.973,22.417,10.859
	C74.127,85.501,75.768,88.345,77.273,91.354z"/>
<path d="M62.795,41.568c-0.834-1.121-1.851-1.196-3.027-2.204H34.667c-1.178,1.008-2.194,1.084-3.032,2.204"/>
<path d="M58.658,62.778c1.315-0.999,2.462-1.075,3.423-2.205H32.349c0.963,1.13,2.112,1.206,3.427,2.205"/>
<path d="M59.172,12.281c1.316-0.999,1.948-1.061,2.909-2.19H32.349c0.963,1.129,1.897,1.252,3.212,2.253"/>
<path d="M29.561,52.213c-0.324-1.289-0.292-0.903-0.048-2.244l35.904-0.061c0.482,1.184,0.435,0.841,0.047,2.088"/>
<path d="M62.795,90.997c-0.834-1.12-1.851-1.196-3.027-2.205H34.667c-1.178,1.009-2.194,1.085-3.032,2.205"/>
<path d="M27.323,0.25"/>
</svg>
