<?xml version="1.0" encoding="utf-8"?>
<!-- Generator: Adobe Illustrator 13.0.0, SVG Export Plug-In . SVG Version: 6.00 Build 14948)  -->
<!DOCTYPE svg PUBLIC "-//W3C//DTD SVG 1.1//EN" "http://www.w3.org/Graphics/SVG/1.1/DTD/svg11.dtd">
<svg version="1.1" id="Layer_1" xmlns="http://www.w3.org/2000/svg" xmlns:xlink="http://www.w3.org/1999/xlink" x="0px" y="0px"
	 width="100px" height="100px" viewBox="0 0 100 100" enable-background="new 0 0 100 100" xml:space="preserve">
<path d="M85.36,44.8c-0.16-0.33-0.351-0.69-1.37-1.03c-0.92-0.32-1.76-1.52-2.471-3.04c-0.079-0.16-0.149-0.33-0.229-0.49
	c0,0-4.54-2.41-7.55-4.59c-3.01-2.17-4.181-3.66-5.19-5.21c-1.02-1.56-0.859-1.5-1.93-2.15c-1.021-0.62-2.771-1.59-5.29-5.59
	c0.16-0.65,0.3-1.22,0.43-1.66c0.63-2.18,0.19-2.2,0.19-2.2c0.569-2.24,0.41-2.47,0.51-3c0.05-0.22,0.19-0.77,0.12-1.01
	c0.4,0.54,3.65,1.23,5.87,5.98c0.35,0.75,0.67,1.61,0.95,2.57c0,0,3.729,2.07,7.13,5.96c3.399,3.9,4.91,6.52,7.25,8.69
	c2.35,2.17,3.83,2.68,5,4.32c1.18,1.64,2.18,2.85,3.439,4.19c0,0-0.33,0.57-1.64-0.34c-1.311-0.91-1.07-1.27-2.24-1.8
	c-1.17-0.54-1.979-0.98-1.979-0.98s0.109,0.21,0.26,0.52c0.38,0.83,1.04,2.38,0.729,2.76c-0.42,0.51-1.029,0.16-1.34-0.52
	C85.69,45.51,85.52,45.14,85.36,44.8z"/>
<path d="M62.46,14.72c0.07,0,0.1,0.04,0.12,0.11c-0.021-0.02-0.03-0.03-0.04-0.05l-0.01-0.01l-1.471,7.5
	c0.091,0.15,0.181,0.29,0.271,0.43c-0.63,2.57-1.46,6.3-2.12,7.24c-0.84,1.18-0.979,1.07-0.9,2.9c0.091,1.84,0.811,3.59,0.15,5.86
	s0.07,3.62,0.54,5.77c0.48,2.16,0.58,4.94,0.35,9.02c-0.229,4.08-0.63,7.18-0.979,9.42c-0.34,2.24-0.44,3.109-0.36,5.01
	c0.09,1.89,0,3.32,0.05,4.521c0.04,1.21,0.99,2.5,1.03,5.56s-0.39,5.86-1.21,9.47c-0.81,3.62-0.77,3.971-0.6,5.13
	c0.17,1.16-0.3,2.2,0.26,2.71c0.56,0.521,1.03,1.021,2.15,1.74c1.119,0.72,1.729,0.95,1.55,1.38c-0.17,0.431-1.12,0.801-2.29,1.15
	c-0.37,0.1-0.75,0.15-1.12,0.15c-0.82,0-1.61-0.23-2.13-0.521c-0.74-0.43-1.061-0.55-1.92-0.55c-0.87,0-1.15-0.26-1.181-0.92
	c-0.029-0.66,0.4-1.24,0.83-1.931c0.431-0.68,0.521-1.09,0.32-1.689c-0.2-0.601-0.12-0.74-0.06-1.64
	c0.06-0.891-0.03-4.73-0.061-6.54c-0.03-1.811-0.66-3.101-1.06-4.71c-0.4-1.61-0.431-3.511-0.261-5.061
	c0.171-1.55,0.091-1.61-0.09-3.13c-0.17-1.521-0.6-3.67-1.029-6.14c-0.431-2.471-0.631-3.96-0.601-6.521
	c0.03-2.56-0.17-5.6-0.49-5.6c-0.33,0-0.59,3.04-0.56,5.6c0.03,2.561-0.17,4.05-0.6,6.521c-0.44,2.47-0.86,4.619-1.04,6.14
	c-0.17,1.52-0.25,1.58-0.08,3.13c0.17,1.55,0.14,3.45-0.26,5.061c-0.4,1.609-1.03,2.899-1.06,4.71c-0.03,1.81-0.12,5.649-0.06,6.54
	c0.06,0.899,0.14,1.039-0.06,1.64c-0.2,0.6-0.11,1.01,0.32,1.689c0.43,0.69,0.86,1.271,0.83,1.931c-0.03,0.66-0.32,0.92-1.18,0.92
	s-1.17,0.12-1.92,0.55c-0.52,0.29-1.31,0.521-2.13,0.521c-0.37,0-0.75-0.051-1.11-0.15c-1.18-0.35-2.13-0.72-2.3-1.15
	c-0.17-0.43,0.43-0.66,1.55-1.38s1.59-1.22,2.15-1.74c0.56-0.51,0.09-1.55,0.26-2.71c0.17-1.159,0.22-1.51-0.6-5.13
	C41.43,83.86,41,81.05,41.04,78c0.04-3.06,0.99-4.35,1.04-5.56c0.04-1.21-0.05-2.631,0.04-4.521c0.09-1.9-0.02-2.77-0.36-5.01
	c-0.34-2.24-0.75-5.351-0.98-9.42c-0.23-4.08-0.13-6.86,0.35-9.02c0.47-2.15,1.2-3.5,0.54-5.77c-0.65-2.27,0.06-4.02,0.15-5.86
	c0.08-1.83-0.06-1.72-0.89-2.9c-0.62-0.88-1.39-4.21-2.01-6.75c0.25-0.36,0.5-0.76,0.76-1.18l-1.47-7.49v-0.01
	c0.16-0.1,0.35-0.11,0.58-0.11c4.23-0.02,4.39-0.08,4.94-0.08c0.01,0,0.01,0,0.01,0c0.51-0.02,2.12-1.37,2.85-2.03
	c0.13,0.27,0.31,0.51,0.56,0.77c1.08,1.13,1.89,1.56,2.86,1.56c0.971,0,1.73-0.43,2.82-1.56c0.24-0.25,0.42-0.49,0.55-0.75
	c0.771,0.66,2.51,1.99,3.01,2.01H56.4C57.01,14.32,57.07,14.72,62.46,14.72z"/>
<path d="M61.06,22.27l1.471-7.5l0.01,0.01c0.01,0.02,0.02,0.03,0.04,0.05c0.07,0.24-0.07,0.79-0.12,1.01c-0.1,0.53,0.06,0.76-0.51,3
	c0,0,0.439,0.02-0.19,2.2c-0.13,0.44-0.27,1.01-0.43,1.66C61.24,22.56,61.15,22.42,61.06,22.27z"/>
<path d="M50.208,15.292c-1.18,0-2.341,0.333-3.542-0.917c-0.25-0.25,0.103-1.855-0.047-2.105c-0.01,0.01-0.02,0.02-0.03,0.02
	c-0.22-0.46-0.31-0.98-0.41-1.75c-0.02-0.16-0.05-0.36-0.07-0.56c-0.06,0.08-0.13,0.12-0.19,0.12c-0.14,0-0.28-0.16-0.34-0.41
	c-0.09-0.43-0.12-0.67-0.4-1.58c-0.26-0.9-0.09-1.14,0.06-1.27c0.05-0.04,0.11-0.06,0.19-0.06c0.16,0,0.35,0.07,0.48,0.19
	c-0.03-0.84-0.06-1.76-0.06-2.78c0-2.91,3.36-3.36,4.14-3.36c0.77,0,4.13,0.45,4.13,3.36c0,1.02-0.021,1.94-0.05,2.78
	c0.13-0.12,0.319-0.19,0.47-0.19c0.08,0,0.15,0.02,0.2,0.06c0.149,0.13,0.319,0.37,0.05,1.27c-0.271,0.91-0.3,1.15-0.4,1.58
	c-0.05,0.25-0.189,0.41-0.33,0.41c-0.069,0-0.14-0.04-0.199-0.12c-0.011,0.2-0.04,0.4-0.061,0.56c-0.1,0.78-0.189,1.31-0.42,1.77
	c-0.01-0.02-0.03-0.03-0.04-0.04c-0.14,0.25,0.274,2.397,0.035,2.647C52.154,16.187,51.379,15.292,50.208,15.292z"/>
<path d="M38.21,14.51v0.01H38.2C38.2,14.51,38.21,14.51,38.21,14.51z"/>
<path d="M38.21,14.52l1.47,7.49c-0.26,0.42-0.51,0.82-0.76,1.18c-0.21-0.84-0.39-1.6-0.55-2.15c-0.63-2.18-0.8-2.21-0.8-2.21
	l0.39-4.02c0.02-0.04,0.04-0.08,0.07-0.11c0.09-0.06,0.15-0.12,0.17-0.18H38.21z"/>
<path d="M38.2,14.52c-0.02,0.06-0.08,0.12-0.17,0.18C38.08,14.62,38.13,14.56,38.2,14.52z"/>
<path d="M16.75,43.51c-1.02,0.35-1.21,0.7-1.37,1.03c-0.16,0.34-0.33,0.71-0.65,1.38c-0.31,0.68-0.92,1.03-1.34,0.52
	c-0.31-0.38,0.35-1.93,0.73-2.76c0.15-0.31,0.26-0.52,0.26-0.52s-0.81,0.45-1.98,0.98c-1.17,0.53-0.92,0.9-2.24,1.81
	c-1.31,0.9-1.65,0.34-1.65,0.34c1.26-1.35,2.27-2.56,3.45-4.19c1.17-1.64,2.65-2.16,5-4.33c2.34-2.17,3.85-4.79,7.25-8.69
	c3.4-3.89,7.13-5.95,7.13-5.95c0.28-0.97,0.6-1.82,0.95-2.57c2.05-4.39,4.98-5.32,5.74-5.86c-0.03,0.03-0.05,0.07-0.07,0.11
	l-0.39,4.02c0,0,0.17,0.03,0.8,2.21c0.16,0.55,0.34,1.31,0.55,2.15c-2.26,3.38-3.84,4.26-4.8,4.84c-1.07,0.65-0.91,0.59-1.93,2.15
	c-1.01,1.55-2.17,3.04-5.19,5.21c-3.01,2.18-7.56,4.59-7.56,4.59c-0.07,0.17-0.14,0.33-0.22,0.49
	C18.52,41.99,17.67,43.19,16.75,43.51z"/>
</svg>
