<?xml version="1.0" encoding="utf-8"?>
<!-- Generator: Adobe Illustrator 13.0.0, SVG Export Plug-In . SVG Version: 6.00 Build 14948)  -->
<!DOCTYPE svg PUBLIC "-//W3C//DTD SVG 1.1//EN" "http://www.w3.org/Graphics/SVG/1.1/DTD/svg11.dtd">
<svg version="1.1" id="Layer_1" xmlns="http://www.w3.org/2000/svg" xmlns:xlink="http://www.w3.org/1999/xlink" x="0px" y="0px"
	 width="100px" height="100px" viewBox="0 0 100 100" enable-background="new 0 0 100 100" xml:space="preserve">
<g id="Captions">
</g>
<g id="Your_Icon">
	<g>
		<g>
			<path d="M94.759,15.914c0.043-0.325,1.063-0.449,0.61-1.402c-0.5-0.471-1.145-0.1-1.707-0.302
				c-2.318-0.833-7.926-0.318-12.777,1.186c-0.814-3.599-2.6-6.101-4.697-6.118c-1.984-0.019-3.73,2.189-4.652,5.46
				c-4.049-2.008-7.908-2.18-9.266-0.185c-1.498,2.2,0.574,6.266,4.666,9.473c-2.775,2.748-5.029,5.772-6.719,8.702
				c-6.312,10.937-14.091,17.248-16.829,23.556c-1.73,3.995-3.794,11.698-1.342,17.346c-2.274-0.185-4.945-0.287-8.007-0.306
				c-7.836-0.051-10.475-2.127-10.475-3.067c0-0.756,1.986-2.254,6.586-2.295c6.355-0.059,8.611-2.31,8.602-4.394
				c-0.014-3.154-5.123-6.335-16.501-6.335c-7.108,0-12.553,1.783-14.212,4.65c-0.626,1.09-0.645,2.258-0.048,3.289
				c1.233,2.139,4.916,3.312,10.369,3.312c0.697,0,1.263-0.564,1.263-1.266c0-0.695-0.565-1.262-1.263-1.262
				c-5.524,0-7.743-1.289-8.185-2.051c-0.1-0.177-0.166-0.391,0.051-0.764c0.787-1.362,4.639-3.393,12.024-3.393
				c10.522,0,13.973,2.844,13.976,3.821c0.005,0.629-1.783,1.817-6.101,1.856c-6.281,0.06-9.09,2.466-9.087,4.824
				c0.005,2.662,3.418,5.527,12.983,5.586c3.944,0.026,6.888,0.193,9.085,0.418c1.13,2.332,4.83,3.299,7.451,6.019
				c3.494,3.618,4.824,5.228,6.412,6.257c0.779,0.505,1.092,0.645,1.75,0.219c0.656-0.625,0.86-0.055,0.531-1.188
				c-0.276-0.955-1.562-0.51-2.104-1.552c-0.041-0.119-0.854-1.067-1.146-2.104c-0.23-0.815,0.484-1.5,0.688-1.812
				c0.395-0.708,2.208-0.208,3.708-0.166c1.25,0.125,3.046,0.526,4.161,0.658c7.441,0.912,12.308,2.33,12.725,0.602
				c0.375-0.969,0.625-1.062-0.219-1.635c-0.722-0.271-1.541-0.521-3-0.709c-1.547-0.199-4.451,0.314-5.583-0.459
				c-0.535-0.393-0.417-0.624-0.394-1.191c8.92-3.938,9.361-14.593,10.641-27.12c0.72-7.052,0.448-13.375,2.414-18.005
				c1.118-2.632,3.459-4.25,5.58-6.393C89.389,24.952,94.371,18.872,94.759,15.914z"/>
		</g>
		<path d="M79.125,52.375c1.875,0.938,4.25,1.05,5.062,1.562c0.973,0.613,0.58,0.941-0.062,1.5c-1.453,1.264-5.896-0.953-8.912-4.42
			c-3.014-3.468-4.279-7.305-2.822-8.568c1.455-1.267,2.219,2.584,5.234,6.051C78.202,49.164,77.812,52.062,79.125,52.375z"/>
	</g>
</g>
</svg>
