<?xml version="1.0" encoding="utf-8"?>
<!-- Generator: Adobe Illustrator 13.0.0, SVG Export Plug-In . SVG Version: 6.00 Build 14948)  -->
<!DOCTYPE svg PUBLIC "-//W3C//DTD SVG 1.1//EN" "http://www.w3.org/Graphics/SVG/1.1/DTD/svg11.dtd">
<svg version="1.1" id="Layer_1" xmlns="http://www.w3.org/2000/svg" xmlns:xlink="http://www.w3.org/1999/xlink" x="0px" y="0px"
	 width="100px" height="100px" viewBox="-23 -3.099 100 100" enable-background="new -23 -3.099 100 100" xml:space="preserve">
<path d="M76,47.957c0-2.562,0-4.682,0-6.903c0-1.077-0.738-2.153-1.814-2.153c-7.674,0-15.348,0-23.021,0
	c-1.238-3.068-0.602-6.726,1.212-10.042c3.595,0.894,7.405,0.646,10.792-0.879c3.559-2.066,6.114-5.6,7.316-9.523
	c0.144-0.466-0.166-0.919-0.603-1.062c-8.306-2.717-16.194,1.249-19.063,9.309c-2.444,3.893-3.382,8.355-2.238,12.197
	c-8.242,0-16.483,0-24.725,0c-1.076,0-1.855,1.077-1.855,2.153c0,2.489,0,4.978,0,7.467c0,1.077,0.779,2.379,1.855,2.379
	c16.776,0,33.145,0,50.145,0C75.991,50.9,76.652,49.142,76,47.957z"/>
<path d="M72.044,52.9c-15.185,0-30.37,0-45.555,0c-1.323,0-2.002,1.055-1.812,2.24c1.915,11.967,3.829,23.674,5.744,35.641
	c0.13,0.812,1.046,1.119,1.812,1.119c11.208,0,22.465,0,33.332,0c0.947,0.52,2.197,0.348,2.504-0.89
	c0.16-0.265,0.213-0.558,0.152-0.842c1.879-11.735,3.758-23.317,5.637-35.06C74.046,53.925,73.367,52.9,72.044,52.9z"/>
<path d="M46.685,29.292c0.556,0.236,1.372,0.222,1.667-0.438c2.378-5.322,2.994-11.385,1.159-16.945
	c-0.028-0.085-0.064-0.162-0.104-0.233c-0.007-0.02-0.01-0.039-0.019-0.058c-2.304-5.17-6.87-9.273-12.07-11.48
	c-0.556-0.236-1.372-0.222-1.667,0.438C30.48,12.142,34.953,24.315,46.685,29.292z"/>
</svg>
