<?xml version="1.0" encoding="utf-8"?>
<!-- Generator: Adobe Illustrator 13.0.0, SVG Export Plug-In . SVG Version: 6.00 Build 14948)  -->
<!DOCTYPE svg PUBLIC "-//W3C//DTD SVG 1.1//EN" "http://www.w3.org/Graphics/SVG/1.1/DTD/svg11.dtd">
<svg version="1.1" id="Capa_1" xmlns="http://www.w3.org/2000/svg" xmlns:xlink="http://www.w3.org/1999/xlink" x="0px" y="0px"
	 width="100px" height="100px" viewBox="0 0 100 100" enable-background="new 0 0 100 100" xml:space="preserve">
<path d="M83.288,30.109c-14.997-10.147-25.37-6.315-35.461-1.326c-9.189,4.542-12.685,4.313-12.685,4.313
	c0-4.904-5.234-2.588-5.234-2.588s-0.846-1.968-3.214-1.945c-4.735,0.044-6.942,10.115-6.942,10.115
	C9.21,41.835,4.024,53.948,4.024,53.948s-1.413,1.112-0.819,2.179c0.535,0.958,1.916,0.448,1.916,0.448
	c12.375,5.379,21.733-0.056,21.733-0.056c1.621,0.614,3.382-0.252,3.382-0.252c2.848,3.483,5.897,4.636,9.094,4.784
	c0.576,1.63,0.886,5.523-2.661,4.421c-5.038-1.567-7.774-0.536-8.994,0.911c-0.817,0.971-0.567,1.993,3.069,1.92h9.075
	c0,0,4.07,0.281,4.255-2.472c0.178-2.664,2.272-5.701,5.426-6.038c4.907-0.735,10.009-0.77,15.153,3.745
	c0.019,0.015,0.035,0.028,0.054,0.045c1.128,1.023,0.894,1.815-0.006,2.073c-0.411,0.088-0.932,0.057-1.582-0.146
	c-5.038-1.564-7.775-0.534-8.994,0.913c-0.817,0.971-0.566,1.955,3.069,1.88h13.146c8.678,4.33,18.595,0.84,21.694-3.453
	c0.076,0.346,0.144,0.703,0.194,1.077c0.455,3.471-0.785,6.299-3.687,8.403c-5.863,4.251-12.863,2.271-20.27,0.173
	c-1.08-0.306-2.164-0.612-3.245-0.9c-8.548-2.273-18.804-3.833-32.43,6.5c-0.531,0.401-0.634,1.157-0.233,1.688
	c0.402,0.532,1.159,0.636,1.69,0.233c12.759-9.677,22.36-8.218,30.353-6.091c1.068,0.286,2.138,0.589,3.207,0.89
	c5.429,1.537,10.987,3.111,16.198,2.119c2.116-0.404,4.176-1.232,6.145-2.66c5.409-3.922,5.338-9.514,4.051-13.438
	C99.019,56.421,97.213,39.531,83.288,30.109z"/>
</svg>
