<?xml version="1.0" encoding="utf-8"?>
<!-- Generator: Adobe Illustrator 13.0.0, SVG Export Plug-In . SVG Version: 6.00 Build 14948)  -->
<!DOCTYPE svg PUBLIC "-//W3C//DTD SVG 1.1//EN" "http://www.w3.org/Graphics/SVG/1.1/DTD/svg11.dtd">
<svg version="1.1" id="Layer_1" xmlns="http://www.w3.org/2000/svg" xmlns:xlink="http://www.w3.org/1999/xlink" x="0px" y="0px"
	 width="100px" height="80.738px" viewBox="0 0 100 80.738" enable-background="new 0 0 100 80.738" xml:space="preserve">
<path fill="#010101" d="M57.171,59.063c6.256,4.454,13.266,8.466,21.526,8.466c6.9,0,12.522-3.385,15.038-9.057
	c2.371-5.342,1.347-11.615-2.602-15.979c-2.475-2.737-6.384-4.247-10.521-5.853c-2.164-0.838-5.722-2.215-6.761-3.153
	c-0.68-0.643-1.476-1.856-1.135-3.145c0.493-1.402,0.834-2.123,1.781-3.108c1.175-1.175,6.134-3.444,7.086-4.282
	c1.896-1.667,2.843-3.184,3.069-4.473c0.112-0.636-0.934-1.065-2.083-1.479c-1.364-0.492-2.351-1.212-7.239-0.34
	c-4.207,1.63-8.213,2.649-11.393,7.571c-2.949,4.563-3.374,9.738-1.194,14.571c2.246,4.982,7.929,7.182,13.426,9.309
	c2.022,0.782,5.065,1.96,5.876,2.667c0.807,0.923,0.748,2.028,0.447,2.702c-0.673,1.52-2.668,1.746-3.794,1.746
	c-6.272,0-12.368-4.6-18.818-9.464c-0.896-0.678-1.801-1.357-2.708-2.028l-6.913-4.64c-4.075-2.359-8.373-4.012-13.078-4.012
	c-10.682,0-14.893,9.681-18.356,15.611c-0.971,1.66-2.529,7.049-3.07,8.299c-0.938,1.365-2.074,2.985-4.662,2.956
	c-3.325,0-5.532-2.612-6.479-1.325c-0.266,0.948-0.307,1.771,2.426,3.79c2.956,1.745,2.729,1.442,4.964,1.933
	c0.711,0.156,3.296,0.108,4.018-0.039c5.695-1.168,6.085-6.854,8.942-11.748c3.196-5.475,8.839-7.174,12.216-7.174
	c3.832,0,8.313,2.996,13.078,6.538"/>
<g id="Layer_2">
</g>
</svg>
