<?xml version="1.0" encoding="UTF-8" standalone="no"?>
<!-- Generator: Adobe Illustrator 13.0.0, SVG Export Plug-In . SVG Version: 6.00 Build 14948)  -->

<svg
   xmlns:dc="http://purl.org/dc/elements/1.1/"
   xmlns:cc="http://creativecommons.org/ns#"
   xmlns:rdf="http://www.w3.org/1999/02/22-rdf-syntax-ns#"
   xmlns:svg="http://www.w3.org/2000/svg"
   xmlns="http://www.w3.org/2000/svg"
   xmlns:sodipodi="http://sodipodi.sourceforge.net/DTD/sodipodi-0.dtd"
   xmlns:inkscape="http://www.inkscape.org/namespaces/inkscape"
   version="1.1"
   id="Livello_1"
   x="0px"
   y="0px"
   width="100px"
   height="100px"
   viewBox="0 0 100 100"
   enable-background="new 0 0 100 100"
   xml:space="preserve"
   inkscape:version="0.91 r13725"
   sodipodi:docname="yeast.svg"><metadata
     id="metadata9"><rdf:RDF><cc:Work
         rdf:about=""><dc:format>image/svg+xml</dc:format><dc:type
           rdf:resource="http://purl.org/dc/dcmitype/StillImage" /></cc:Work></rdf:RDF></metadata><defs
     id="defs7" /><sodipodi:namedview
     pagecolor="#ffffff"
     bordercolor="#666666"
     borderopacity="1"
     objecttolerance="10"
     gridtolerance="10"
     guidetolerance="10"
     inkscape:pageopacity="0"
     inkscape:pageshadow="2"
     inkscape:window-width="986"
     inkscape:window-height="666"
     id="namedview5"
     showgrid="false"
     inkscape:zoom="2.36"
     inkscape:cx="117.79661"
     inkscape:cy="50"
     inkscape:window-x="673"
     inkscape:window-y="319"
     inkscape:window-maximized="0"
     inkscape:current-layer="Livello_1" /><path
     d="m 72.733458,53.039701 c 6.637776,-51.7592982 3.318881,-25.879648 0,0 z M 85.504747,41.468918 c 0,0 -14.886004,7.645182 -19.938089,-3.625406 0,0 -3.022022,-9.660533 11.270002,-14.000749 0,0 13.418339,-3.006548 18.799214,3.113788 0.0011,0.0012 5.847526,9.608244 -10.131127,14.512367 z"
     id="path3"
     inkscape:connector-curvature="0"
     style="fill:#231f20"
     sodipodi:nodetypes="ccccccc"
     inkscape:transform-center-x="3.4915888"
     inkscape:transform-center-y="-8.9535266" /><path
     sodipodi:nodetypes="ccccccc"
     style="fill:#231f20"
     inkscape:connector-curvature="0"
     id="path3357"
     d="m 66.036122,64.57062 c 0,0 27.873156,-37.538982 -25.36952,-35.309006 0,0 -29.713687,4.309795 -33.5403033,35.309006 0,0 8.0510963,26.980148 29.0085313,16.951648 0,-0.0031 20.718064,-3.753898 29.901292,-16.951648 z M 8.1484562,25.977352 c -10.9202123,64.993389 -5.4601045,32.496693 0,0 z" /></svg>