<?xml version="1.0" encoding="utf-8"?>
<!-- Generator: Adobe Illustrator 13.0.0, SVG Export Plug-In . SVG Version: 6.00 Build 14948)  -->
<!DOCTYPE svg PUBLIC "-//W3C//DTD SVG 1.1//EN" "http://www.w3.org/Graphics/SVG/1.1/DTD/svg11.dtd">
<svg version="1.1" id="Livello_1" xmlns="http://www.w3.org/2000/svg" xmlns:xlink="http://www.w3.org/1999/xlink" x="0px" y="0px"
	 width="100px" height="100px" viewBox="0 0 100 100" enable-background="new 0 0 100 100" xml:space="preserve">
<path fill="#231F20" d="M76.186,37.112c0,0,6.922-0.255,4.469-4.982c0,0-2.801-6.742-12.256-7.268c0,0-5.711-0.43-4.555,4.744
	c0,0,0.788,4.362,6.045,6.902C69.889,36.507,70.586,37.886,76.186,37.112z M14.967,30.555c0,0-3.271-2.444-1.139-6.733
	c0,0,2.479-5.08,10.708-2.787c0,0,5.435,2.438,6.217,5.674c0,0-0.526,5.295-10.68,5.755C20.074,32.464,16.206,32.061,14.967,30.555z
	 M74.334,46c0,0,8.617-11.75-7.844-11.052c0,0-9.186,1.349-10.368,11.052c0,0,2.489,8.446,8.968,5.305
	C65.09,51.306,71.495,50.132,74.334,46z M33.124,37.725c0,0-8.237-4.082-4.209-10.386c0,0,8.927-5.938,12.253,6.662
	C41.168,34.002,41.094,40.582,33.124,37.725z M50.902,68.028c0,0-1.14,4.462,4.029,6.126c0,0,3.217,1.243,10.205,1.141
	c0,0,5.377-0.438,5.203-5.604c0,0-0.089-5.077-6.219-6.216c0,0-4.641-1.05-9.453,0.526C54.668,63.999,52.566,64.439,50.902,68.028z
	 M44.633,62.348c0,0-7.526,0.086-10.066,4.901c0,0-2.013,5.076,2.803,5.692c0,0,5.515,1.14,5.602,1.574c0,0,7.179,2.101,9.717-4.729
	C52.689,69.786,54.177,62.259,44.633,62.348z M4.672,61.096c0,0-3.24,4.202,0,7.878c0,0,2.978,2.627,6.303,1.49
	c0,0,5.774-4.377,6.04-9.983c0,0-0.35-3.789-3.238-4.74C13.776,55.74,7.735,53.566,4.672,61.096z M86.842,54.96
	c0,0,2.19-7.627,8.318-5.126c0,0,4.378,3.361,2.361,9.844c0,0-1.75,7.891-7.526,7.014C89.995,66.689,84.564,66.954,86.842,54.96z
	 M10.187,56.438c0,0,6.405,5.428,11.481-2.938c0,0,5.08-6.441,0-10.645c0,0-6.642-2.791-10.33,4.377
	C11.339,47.233,6.773,53.012,10.187,56.438z M35.864,48.042c0,0,9.689-2.338,10.971,4.959c0,0,0.349,6.072-8.52,6.57
	c0,0-8.17-0.161-10.39-4.501C27.925,55.07,25.942,48.627,35.864,48.042z M95.127,66.443c0,0,9.698,2.299,7.54,9.391
	c0,0-2.438,5.57-10.569,1.999c0,0-7.215-3.841-7.229-8.716C84.868,69.117,86.016,62.474,95.127,66.443z"/>
</svg>
