<?xml version="1.0" encoding="UTF-8" standalone="no"?>
<!-- Generator: Adobe Illustrator 13.0.0, SVG Export Plug-In . SVG Version: 6.00 Build 14948)  -->

<svg
   xmlns:dc="http://purl.org/dc/elements/1.1/"
   xmlns:cc="http://creativecommons.org/ns#"
   xmlns:rdf="http://www.w3.org/1999/02/22-rdf-syntax-ns#"
   xmlns:svg="http://www.w3.org/2000/svg"
   xmlns="http://www.w3.org/2000/svg"
   xmlns:sodipodi="http://sodipodi.sourceforge.net/DTD/sodipodi-0.dtd"
   xmlns:inkscape="http://www.inkscape.org/namespaces/inkscape"
   version="1.1"
   id="Livello_1"
   x="0px"
   y="0px"
   width="100px"
   height="100px"
   viewBox="0 0 100 100"
   enable-background="new 0 0 100 100"
   xml:space="preserve"
   inkscape:version="0.91 r13725"
   sodipodi:docname="yeasts.svg"><metadata
     id="metadata9"><rdf:RDF><cc:Work
         rdf:about=""><dc:format>image/svg+xml</dc:format><dc:type
           rdf:resource="http://purl.org/dc/dcmitype/StillImage" /></cc:Work></rdf:RDF></metadata><defs
     id="defs7" /><sodipodi:namedview
     pagecolor="#ffffff"
     bordercolor="#666666"
     borderopacity="1"
     objecttolerance="10"
     gridtolerance="10"
     guidetolerance="10"
     inkscape:pageopacity="0"
     inkscape:pageshadow="2"
     inkscape:window-width="838"
     inkscape:window-height="565"
     id="namedview5"
     showgrid="false"
     inkscape:zoom="3.337544"
     inkscape:cx="50.982212"
     inkscape:cy="48.136738"
     inkscape:window-x="415"
     inkscape:window-y="367"
     inkscape:window-maximized="0"
     inkscape:current-layer="Livello_1" /><path
     d="m 76.186,37.112 c 0,0 6.921,-0.255 4.469,-4.982 0,0 -2.801,-6.742 -12.257,-7.268 0,0 -5.71,-0.43 -4.554,4.744 0,0 0.788,4.362 6.044,6.902 0,-0.001 0.698,1.378 6.298,0.604 z M 20.573815,36.876783 c 0,0 -3.271,-2.444 -1.139,-6.733 0,0 2.479,-5.08 10.708,-2.787 0,0 5.435,2.438 6.217,5.674 0,0 -0.526,5.295 -10.68,5.755 10e-4,0 -3.867,-0.403 -5.106,-1.909 z m 52.403051,15.848785 c 0,0 8.617,-11.75 -7.843,-11.052 0,0 -9.186,1.349 -10.369,11.052 0,0 2.489,8.445 8.968,5.306 0,-10e-4 6.405,-1.175 9.244,-5.306 z M 13.304841,35.916058 c 0,0 -8.2370005,-4.082 -4.2090005,-10.386 0,0 8.9280005,-5.938 12.2530005,6.662 0.599243,-3.294837 -0.073,6.581 -8.044,3.724 z m 23.712075,17.561536 c 0,0 -1.14,4.462 4.029,6.126 0,0 3.217,1.244 10.205,1.141 0,0 5.378,-0.438 5.203,-5.604 0,0 -0.088,-5.078 -6.218,-6.216 0,0 -4.64,-1.05 -9.453,0.526 0,-0.002 -2.102,0.439 -3.766,4.027 z m 4.619874,16.509755 c 0,0 -7.526,0.087 -10.066,4.902 0,0 -2.013,5.076 2.803,5.692 0,0 5.515,1.14 5.602,1.575 0,0 7.179,2.1 9.717,-4.73 0,0 1.488,-7.527 -8.056,-7.439 z m 37.202616,-0.0073 c 0,0 -3.24,4.202 0,7.878 0,0 2.978,2.626 6.303,1.489 0,0 5.775,-4.376 6.04,-9.982 0,0 -0.349,-3.789 -3.239,-4.741 0,0 -6.04,-2.173 -9.104,5.356 z M 86.842,54.96 c 0,0 2.19,-7.627 8.318,-5.126 0,0 4.378,3.361 2.362,9.844 0,0 -1.75,7.89 -7.527,7.014 0,-0.002 -5.43,0.262 -3.153,-11.732 z M 58.280321,77.289988 c 0,0 6.405,5.428 11.482,-2.937 0,0 5.079,-6.442 0,-10.646 0,0 -6.642,-2.791 -10.33,4.378 10e-4,0 -4.565,5.778 -1.152,9.205 z M 12.101,49.296 c 0,0 10.530531,1.184838 10.971,4.959 0.440469,3.774162 0.349,6.072 -8.52,6.57 0,0 -8.17,-0.161 -10.39,-4.501 0,0 -1.983,-6.443 7.939,-7.028 z m 12.176,18.263 c 0,0 9.698,2.298 7.54,9.39 0,0 -2.438,5.571 -10.57,1.999 0,0 -7.215,-3.84 -7.229,-8.715 0,-0.001 1.147,-6.644 10.259,-2.674 z"
     id="path3"
     inkscape:connector-curvature="0"
     style="fill:#231f20"
     sodipodi:nodetypes="ccccccccccccccccccccccccccccccccccccccccccccccccccczcccccccc" /></svg>