<svg xmlns="http://www.w3.org/2000/svg" xmlns:xlink="http://www.w3.org/1999/xlink" version="1.1" id="Livello_1" x="0px" y="0px" width="100px" height="100px" viewBox="0 0 100 100" enable-background="new 0 0 100 100" xml:space="preserve">
<g>
	<path fill="#000000" stroke="#FFFFFF" stroke-width="0.25" stroke-miterlimit="10" d="M64.756,18.259c0,0-0.18-3.852,3.928-3.579   c4.105,0.274,4.889,0.877,7.301,1.096c0,0,3.65,1.277,3.65,3.467c0,0,0.266,2.996-4.338,4.554c-4.605,1.561-0.301,0-0.301,0   S65.211,23.48,64.756,18.259z"/>
	<path fill="#000000" stroke="#FFFFFF" stroke-width="0.25" stroke-miterlimit="10" d="M44.681,29.557c0,0,0.546-4.291,3.832-4.747   c0,0,3.827-0.7,4.834,2.025c1.008,2.722-2.18,4.007-2.18,4.007h-6.854L44.681,29.557z"/>
	<path fill="#000000" stroke="#FFFFFF" stroke-width="0.25" stroke-miterlimit="10" d="M61.197,18.331c0,0,6.715-1.418,8.881,3.763   c0,0-2.49,7.293-11.523,5.507c0,0-8.307,0.862-7.303-3.704C51.252,23.897,53.432,17.417,61.197,18.331z"/>
	<path fill="#000000" stroke="#FFFFFF" stroke-width="0.25" stroke-miterlimit="10" d="M73.973,23.169c0,0,2.469-4.38,8.217-1.917   c0,0,3.73,2.851,5.244,4.392c0,0,1.787,1.357,2.697,1.63c0,0,2.254,1.019,1.539,3.568c0,0,0.195,2.893-3.727,3.818   c0,0-6.391,0.75-10.77-3.818C77.174,30.842,74.15,28.828,73.973,23.169z"/>
	<path fill="#000000" stroke="#FFFFFF" stroke-width="0.25" stroke-miterlimit="10" d="M67.314,25.722c0,0-5.844-1.093-8.67,4.749   c-2.83,5.841,3.012,5.566,3.012,5.566l12.777-5.195L67.314,25.722z"/>
	<path fill="#000000" stroke="#FFFFFF" stroke-width="0.25" stroke-miterlimit="10" d="M76.256,34.66c0,0,7.215-0.266,4.658-5.194   c0,0-2.92-7.029-12.777-7.577c0,0-5.953-0.448-4.748,4.946c0,0,0.822,4.548,6.301,7.195C69.689,34.03,70.418,35.468,76.256,34.66z"/>
	<path fill="#000000" stroke="#FFFFFF" stroke-width="0.25" stroke-miterlimit="10" d="M65.859,34.721c0,0,2.002-3.887,7.752-1.697   c0,0,2.238,0.953,3.154,3.766l-6.984,4.615l-6.393-2.885L65.859,34.721z"/>
	<path fill="#000000" stroke="#FFFFFF" stroke-width="0.25" stroke-miterlimit="10" d="M32.055,36.76c0,0-3.41-2.548-1.187-7.02   c0,0,2.585-5.295,11.164-2.905c0,0,5.666,2.541,6.481,5.915c0,0-0.548,5.52-11.134,6C37.379,38.75,33.346,38.33,32.055,36.76z"/>
	<path fill="#000000" stroke="#FFFFFF" stroke-width="0.25" stroke-miterlimit="10" d="M46.109,34.66c0,0-3.072-3.187,0.486-5.926   c0,0,10.768-4.837,15.789,0.917c0,0,2.738,2.522,3.475,5.071c0.408,1.395,0.211,2.799-1.375,3.798c0,0-3.393,3.62-11.053,0.389   C53.432,38.908,48.365,36.106,46.109,34.66z"/>
	<path fill="#000000" stroke="#FFFFFF" stroke-width="0.25" stroke-miterlimit="10" d="M33.931,37.407c0,0,3.116-4.679,8.375-1.002   l2.375,6.519l-4.015,4.887l-8.034-4.381C32.632,43.43,31.658,39.313,33.931,37.407z"/>
	<path fill="#000000" stroke="#FFFFFF" stroke-width="0.25" stroke-miterlimit="10" d="M41.121,44.809c0,0-4.397-2.339-2.244-6.059   c0,0,4.616-5.379,13.014-4.09c0,0,7.393,1.879,2.191,6.602C54.082,41.262,53.439,46.549,41.121,44.809z"/>
	<path fill="#000000" stroke="#FFFFFF" stroke-width="0.25" stroke-miterlimit="10" d="M57.004,40.665c0,0,2.988-4.456,7.379-0.528   c4.391,3.931,3.479,3.292,2.84,5.484c-0.637,2.189-4.227,6.386-4.227,6.386l-5.992-1.841V40.665z"/>
	<path fill="#000000" stroke="#FFFFFF" stroke-width="0.25" stroke-miterlimit="10" d="M66.312,60.565c0,0,6.113,1.497,8.668-3.073   c0,0,0.732-4.144-7.939-8.054c0,0-5.295-1.384-9.311,0.729C57.73,50.167,57.365,59.36,66.312,60.565z"/>
	<path fill="#000000" stroke="#FFFFFF" stroke-width="0.25" stroke-miterlimit="10" d="M95.752,43.906c0,0,8.984-12.249-8.176-11.52   c0,0-9.576,1.406-10.811,11.52c0,0,2.596,8.805,9.35,5.532C86.115,49.438,92.793,48.213,95.752,43.906z"/>
	<path fill="#000000" stroke="#FFFFFF" stroke-width="0.25" stroke-miterlimit="10" d="M29.447,48.69c0,0-8.588-4.255-4.389-10.827   c0,0,9.308-6.191,12.775,6.945C37.833,44.809,37.757,51.669,29.447,48.69z"/>
	<path fill="#000000" stroke="#FFFFFF" stroke-width="0.25" stroke-miterlimit="10" d="M52.42,65.325c0,0,5.221,2.728,10.057,0   c0,0,1.006-0.812,2.371-1.267c0,0,3.289-2.191,0-5.388c0,0-3.83-4.929-7.572-5.291c0,0-9.036-1.54-9.217,4.112   C48.058,57.492,45.835,62.398,52.42,65.325z"/>
	<path fill="#000000" stroke="#FFFFFF" stroke-width="0.25" stroke-miterlimit="10" d="M28.799,49.911c0,0-1.188,4.652,4.2,6.387   c0,0,3.354,1.297,10.639,1.188c0,0,5.607-0.457,5.424-5.841c0,0-0.092-5.295-6.482-6.482c0,0-4.837-1.094-9.855,0.549   C32.725,45.711,30.534,46.17,28.799,49.911z"/>
	<path fill="#000000" stroke="#FFFFFF" stroke-width="0.25" stroke-miterlimit="10" d="M44.862,55.844c0,0-7.847,0.09-10.496,5.11   c0,0-2.098,5.292,2.922,5.934c0,0,5.75,1.187,5.84,1.641c0,0,7.485,2.191,10.131-4.929C53.26,63.6,54.811,55.752,44.862,55.844z"/>
	<path fill="#000000" stroke="#FFFFFF" stroke-width="0.25" stroke-miterlimit="10" d="M52.805,53.31c0,0,5.566,2.442,7.574-2.852   c0,0,1.551-4.381-1.643-8.034c0,0-4.291-6.023-10.586-2.646c0,0-3.9,1.198-0.91,7.74C47.24,47.518,52.17,52.23,52.805,53.31z"/>
	<path fill="#000000" stroke="#FFFFFF" stroke-width="0.25" stroke-miterlimit="10" d="M73.248,55.021c0,0-3.379,4.381,0,8.214   c0,0,3.104,2.738,6.57,1.552c0,0,6.023-4.563,6.297-10.407c0,0-0.363-3.951-3.377-4.942C82.738,49.438,76.441,47.172,73.248,55.021   z"/>
	<path fill="#000000" stroke="#FFFFFF" stroke-width="0.25" stroke-miterlimit="10" d="M86.115,48.267c0,0,2.283-7.951,8.672-5.344   c0,0,4.564,3.504,2.463,10.263c0,0-1.824,8.223-7.848,7.311C89.402,60.497,83.742,60.771,86.115,48.267z"/>
	<path fill="#000000" stroke="#FFFFFF" stroke-width="0.25" stroke-miterlimit="10" d="M64.576,49.438c0,0,5.477,5.596,10.77-3.126   c0,0,5.295-6.716,0-11.097c0,0-6.924-2.91-10.77,4.564C64.576,39.778,61.018,45.865,64.576,49.438z"/>
	<path fill="#000000" stroke="#FFFFFF" stroke-width="0.25" stroke-miterlimit="10" d="M44.879,28.463"/>
	<path fill="#000000" stroke="#FFFFFF" stroke-width="0.25" stroke-miterlimit="10" d="M9.445,47.363c0,0,10.101-2.438,11.438,5.169   c0,0,0.364,6.331-8.882,6.85c0,0-8.518-0.168-10.832-4.692C1.169,54.689-0.899,47.972,9.445,47.363z"/>
	<path fill="#000000" stroke="#FFFFFF" stroke-width="0.25" stroke-miterlimit="10" d="M22.139,66.402c0,0,10.111,2.396,7.861,9.79   c0,0-2.541,5.807-11.02,2.084c0,0-7.522-4.005-7.536-9.087C11.444,69.189,12.639,62.263,22.139,66.402z"/>
</g>
</svg>