<svg xmlns="http://www.w3.org/2000/svg" xmlns:xlink="http://www.w3.org/1999/xlink" version="1.1" x="0px" y="0px" width="100px" height="100px" viewBox="0 0 100 100" enable-background="new 0 0 100 100" xml:space="preserve">
<g id="Captions">
</g>
<g id="Your_Icon">
	<g>
		<g>
			<path d="M94.154,14.782c-0.6-1.876-7.797-1.532-13.826,0.336c-0.814-3.599-2.6-6.101-4.697-6.118     c-1.984-0.019-3.73,2.189-4.652,5.46c-4.049-2.008-7.908-2.18-9.266-0.185c-1.498,2.2,0.574,6.266,4.666,9.473     c-2.775,2.748-5.029,5.772-6.719,8.702c-6.312,10.937-14.091,17.248-16.829,23.556c-1.73,3.995-3.794,11.698-1.342,17.346     c-2.274-0.185-4.945-0.287-8.007-0.306c-7.836-0.051-10.475-2.127-10.475-3.067c0-0.756,1.986-2.254,6.586-2.296     c6.355-0.058,8.611-2.309,8.602-4.393c-0.014-3.154-5.123-6.335-16.501-6.335c-7.108,0-12.553,1.783-14.212,4.651     c-0.626,1.089-0.645,2.257-0.048,3.289c1.233,2.138,4.916,3.313,10.369,3.313c0.697,0,1.263-0.565,1.263-1.264     c0-0.697-0.565-1.263-1.263-1.263c-5.524,0-7.743-1.289-8.185-2.05c-0.1-0.177-0.166-0.391,0.051-0.764     c0.787-1.362,4.639-3.392,12.024-3.392c10.522,0,13.973,2.843,13.976,3.822c0.005,0.629-1.783,1.817-6.101,1.857     c-6.281,0.059-9.09,2.465-9.087,4.824c0.005,2.662,3.418,5.528,12.983,5.587c3.944,0.026,6.888,0.193,9.085,0.417     C43.679,78.315,47.379,79.281,50,82c5.207,5.392,9.154,10.229,10.9,8.544c1.094-1.057,1.049-5.39-0.9-8.544     c1.031,0.183,2.885,0.179,4,0.313c7.441,0.911,12.207,2.179,12.41,0.543c0.162-1.308-3.57-2.89-8.881-3.936     c8.92-3.937,9.361-14.593,10.641-27.12c1.129-11.063,3.744-18.012,7.994-24.398C89.83,21.889,94.938,17.218,94.154,14.782z      M76.258,24.355c-1.692,0-3.064-1.372-3.064-3.064s1.372-3.064,3.064-3.064s3.064,1.372,3.064,3.064S77.95,24.355,76.258,24.355z     "/>
		</g>
		<path d="M83.681,54.506c-1.453,1.264-5.078-0.521-8.093-3.988c-3.014-3.468-4.279-7.305-2.822-8.57    C74.221,40.682,74.985,44.533,78,48C81.015,51.468,85.138,53.238,83.681,54.506z"/>
	</g>
</g>
</svg>