<?xml version="1.0" encoding="utf-8"?>
<!-- Generator: Adobe Illustrator 15.1.0, SVG Export Plug-In . SVG Version: 6.00 Build 0)  -->
<!DOCTYPE svg PUBLIC "-//W3C//DTD SVG 1.1//EN" "http://www.w3.org/Graphics/SVG/1.1/DTD/svg11.dtd">
<svg version="1.1" id="Layer_1" xmlns="http://www.w3.org/2000/svg" xmlns:xlink="http://www.w3.org/1999/xlink" x="0px" y="0px"
	 width="85.048px" height="100px" viewBox="0 0 85.048 100" enable-background="new 0 0 85.048 100" xml:space="preserve">
<path fill="#010101" d="M84.85,85.89c-0.172-0.333-1.528-2.287-3.015-4.344c-3.088-4.272-5.808-9.345-7.738-14.436
	c-0.508-1.337-1.791-3.394-3.976-6.368c-1.3-1.771-2.397-2.983-3.994-4.41c-1.211-1.083-2.644-2.48-3.184-3.105
	c-1.734-2.008-3.307-4.229-3.196-4.517c0.059-0.153,0.722-0.467,1.475-0.695c2.104-0.642,3.071-1.369,4.625-3.479
	c2.988-4.06,3.511-5.127,4.459-9.097c1.597-6.69,3.585-9.863,8.863-14.144c1.628-1.32,1.954-1.678,1.954-2.145
	c0-0.736-0.633-1.309-1.269-1.149c-0.682,0.171-2.66,1.666-4.47,3.379c-3.956,3.742-6.016,7.46-7.279,13.145
	c-0.683,3.07-1.449,4.767-3.385,7.485c-0.965,1.355-2.06,2.67-2.432,2.922c-0.604,0.406-2.334,1.006-3.843,1.331
	c-0.784,0.169-1.095-0.271-1.365-1.934c-0.131-0.802-0.367-1.828-0.526-2.282c-0.685-1.954-0.594-3.023,0.366-4.284
	c1.552-2.04,5.438-8.429,6.338-10.42c1.854-4.104,1.143-7.824-2.716-14.201c-0.492-0.813-1.021-1.834-1.173-2.268
	c-0.68-1.925-0.556-4.588,0.341-7.33c0.383-1.172,0.389-1.293,0.088-1.753c-0.395-0.603-1.161-0.649-1.706-0.104
	c-0.975,0.975-1.661,4.909-1.374,7.877c0.174,1.8,0.688,3.078,2.343,5.83c2.681,4.456,3.385,7.421,2.397,10.09
	c-0.802,2.166-5.559,9.869-6.261,10.14c-0.149,0.057-0.695-0.297-1.213-0.786c-1.104-1.042-2.384-1.731-3.999-2.153
	c-0.638-0.166-1.206-0.349-1.262-0.404c-0.057-0.057,0.454-0.165,1.135-0.242c0.994-0.112,1.396-0.272,2.044-0.813
	c0.602-0.503,0.998-0.674,1.562-0.674c0.648,0,0.889-0.143,1.698-1.009c0.519-0.554,1.185-1.523,1.479-2.153
	c0.47-1.003,0.537-1.395,0.537-3.149c0-1.85-0.05-2.104-0.645-3.32c-1.575-3.219-5.338-5.251-9.024-4.875
	c-1.354,0.138-1.852-0.063-1.852-0.749c0-0.297-0.102-0.354-0.463-0.264c-0.366,0.092-0.515,0.003-0.709-0.422
	c-0.236-0.52-0.258-0.526-0.639-0.182c-0.364,0.331-0.42,0.333-0.755,0.029c-0.336-0.304-0.388-0.303-0.705,0.015
	c-0.297,0.298-0.4,0.307-0.78,0.069c-0.392-0.244-0.47-0.228-0.723,0.154c-0.156,0.235-0.373,0.428-0.48,0.428
	s-0.435,0.254-0.727,0.565c-0.466,0.495-0.689,0.569-1.804,0.599c-3.348,0.088-6.379,1.944-7.756,4.749
	c-0.538,1.097-0.588,1.38-0.588,3.304s0.05,2.201,0.583,3.255c0.32,0.634,0.983,1.559,1.472,2.054
	c0.713,0.723,1.026,0.902,1.58,0.902c0.467,0,0.835,0.153,1.133,0.471c0.65,0.693,1.092,0.866,2.645,1.033l1.402,0.151l-1.768,0.576
	c-2.064,0.671-3.141,1.357-4.42,2.82l-0.927,1.059l-0.607-0.701c-0.334-0.386-1.221-1.558-1.971-2.604
	c-4.456-6.218-5.851-10.315-4.569-13.424c0.249-0.606,1.346-2.499,2.436-4.207c2.417-3.789,2.947-5.154,3.071-7.908
	c0.094-2.081-0.275-6.564-0.59-7.165c-0.288-0.548-0.909-0.804-1.369-0.558c-0.787,0.421-0.838,0.835-0.501,4.059
	c0.501,4.783,0.232,5.793-2.796,10.542c-2.722,4.267-3.01,4.996-2.999,7.642c0.006,1.75,0.098,2.366,0.544,3.661
	c1.326,3.84,4.466,8.856,7.887,12.601c0.811,0.887,1.013,1.237,0.926,1.604c-0.062,0.257-0.37,1.407-0.687,2.557
	c-0.316,1.148-0.575,2.323-0.575,2.609c0,0.757-0.531,1.413-1.145,1.413c-0.511,0-2.434-0.96-3.909-1.951
	c-0.716-0.479-2.938-3.068-4.319-5.03c-0.361-0.513-1.317-2.195-2.125-3.738c-2.991-5.717-5.332-9.44-8.626-13.725
	c-2.667-3.468-2.608-3.405-3.263-3.405c-0.741,0-1.056,0.327-1.056,1.092c0.001,0.464,0.48,1.237,1.992,3.216
	c3.65,4.777,6.498,9.285,8.928,14.133c1.281,2.558,2.418,4.281,4.339,6.579c1.865,2.23,2.735,2.979,4.618,3.969
	c1.668,0.876,1.703,1.107,0.433,2.878c-1.319,1.841-2.415,2.926-3.682,3.646c-1.065,0.606-2.031,1.433-4.392,3.757
	c-1.042,1.026-1.522,1.672-4.384,5.9c-1.379,2.036-2.593,4.453-4.132,8.226c-2.296,5.627-4.086,8.249-7.096,10.398
	c-1.651,1.179-1.656,1.184-1.596,2.003c0.057,0.782,0.094,0.824,0.766,0.881c0.546,0.046,0.989-0.123,1.953-0.746
	c3.442-2.225,5.771-5.55,8.223-11.735c1.198-3.023,2.546-5.706,3.796-7.555c0.619-0.914,1.483-2.202,1.922-2.864
	c0.856-1.291,1.91-2.504,2.177-2.504c0.173,0,0.146,0.065-1.406,3.506c-0.548,1.212-1.369,3.331-1.826,4.709
	c-0.457,1.377-0.909,2.685-1.006,2.905c-1.124,2.57-1.785,11.498-1.103,14.885c0.674,3.346,2.444,5.879,4.933,7.055
	c1.788,0.846,3.124,1.068,5.675,0.945c2.592-0.125,4.196-0.577,6.182-1.741c0.756-0.443,1.446-0.761,1.535-0.706
	c0.089,0.056,0.66,0.85,1.271,1.767c1.301,1.955,3.706,4.318,5.128,5.039c1.138,0.576,2.871,1.235,3.616,1.376h0.001
	c1.515,0.284,4.319-0.527,6.357-1.839c1.262-0.812,2.753-2.35,4.305-4.44c0.849-1.143,1.417-1.726,1.728-1.77
	c0.262-0.037,1.264,0.337,2.302,0.858c2.409,1.211,4.175,1.576,7.048,1.458c1.607-0.065,2.507-0.207,3.326-0.522
	c2.704-1.041,4.528-3.059,5.504-6.086c0.961-2.982,0.859-9.229-0.231-14.245c-0.235-1.084-2.091-6.79-2.795-8.596
	c-0.287-0.735,0.424-0.325,1.041,0.602c0.779,1.17,1.21,2.036,2.164,4.357c0.408,0.992,1.533,3.426,2.501,5.41
	c1.494,3.064,2.217,4.246,4.81,7.871c1.679,2.346,3.272,4.41,3.542,4.587C84.508,88.279,85.477,87.102,84.85,85.89z M36.956,65.458
	c-0.07,0.691-0.212,1.799-0.314,2.46c-0.104,0.661-0.333,2.374-0.51,3.807s-0.595,3.957-0.929,5.61
	c-1.799,8.904-5.051,13.553-10.159,14.521c-2.474,0.47-4.267,0.072-5.768-1.278c-2.065-1.856-2.753-4.058-2.727-8.735
	c0.026-4.81,0.999-9.612,2.8-13.82c0.496-1.159,1.215-2.942,1.598-3.962c0.845-2.25,1.921-4.225,4.146-7.605
	c3.458-5.254,4.511-6.632,4.889-6.398c0.107,0.065,0.306,0.686,0.44,1.377c0.854,4.361,3.08,8.881,5.854,11.891
	C37.084,64.2,37.084,64.2,36.956,65.458z M69.438,77.106c0.435,2.795,0.431,7.445-0.01,9.145c-0.755,2.906-2.343,4.899-4.391,5.508
	h0.002c-2.557,0.759-5.967-0.104-8.35-2.113c-2.312-1.95-4.665-6.959-5.604-11.932c-0.418-2.214-1.232-7.771-1.521-10.377
	l-0.309-2.785l1.37-1.423c2.643-2.742,4.252-5.8,5.437-10.327c0.302-1.15,0.646-2.125,0.767-2.165
	c0.25-0.083,1.832,2.004,4.089,5.396c2.336,3.509,3.472,5.594,4.505,8.268c0.513,1.328,1.273,3.183,1.69,4.119
	C67.965,70.327,68.96,74.05,69.438,77.106z"/>
</svg>
