<svg xmlns="http://www.w3.org/2000/svg" xmlns:xlink="http://www.w3.org/1999/xlink" version="1.1" id="Layer_1" x="0px" y="0px" width="100.0px" height="100px" viewBox="0 0 529.703 529.703" enable-background="new 0 0 529.703 529.703" xml:space="preserve">
<path d="M264.852,57.188c114.689,0,207.663,92.973,207.663,207.663c0,114.689-92.974,207.663-207.663,207.663  S57.188,379.54,57.188,264.851C57.187,150.162,150.161,57.188,264.852,57.188 M264.852,47.188c-29.38,0-57.887,5.756-84.728,17.109  c-25.92,10.963-49.197,26.656-69.185,46.643c-19.985,19.986-35.68,43.263-46.643,69.184c-11.354,26.841-17.109,55.347-17.109,84.728  c0,29.38,5.756,57.887,17.109,84.728c10.963,25.92,26.656,49.197,46.643,69.184c19.987,19.986,43.265,35.681,69.185,46.644  c26.841,11.354,55.348,17.108,84.728,17.108s57.887-5.756,84.729-17.108c25.92-10.963,49.196-26.656,69.184-46.644  c19.987-19.986,35.68-43.264,46.643-69.184c11.354-26.841,17.109-55.348,17.109-84.728c0-29.38-5.756-57.887-17.109-84.728  c-10.963-25.92-26.655-49.197-46.643-69.184C398.778,90.953,375.5,75.26,349.58,64.297  C322.738,52.945,294.231,47.188,264.852,47.188L264.852,47.188z"/>
<path d="M250.023,165.131c0.19,0.845,0.652,1.357,1.117,1.357c0.231,0,0.462-0.125,0.664-0.396c0.07,0.693,0.143,1.339,0.213,1.903  c0.508,4.061,0.987,6.118,3.263,8.483c3.661,3.807,6.382,5.221,9.645,5.221s5.837-1.414,9.498-5.221  c2.274-2.366,2.756-4.423,3.264-8.483c0.07-0.564,0.145-1.21,0.213-1.903c0.202,0.272,0.435,0.396,0.663,0.396  c0.467,0,0.929-0.512,1.118-1.357c0.326-1.45,0.436-2.284,1.342-5.329c0.905-3.046,0.326-3.843-0.183-4.279  c-0.16-0.138-0.395-0.201-0.656-0.201c-0.517,0-1.149,0.242-1.598,0.641c0.115-2.819,0.188-5.941,0.188-9.358  c0-9.789-11.311-11.312-13.921-11.312c-2.609,0-13.922,1.522-13.922,11.312c0,3.417,0.072,6.539,0.188,9.358  c-0.446-0.399-1.081-0.641-1.599-0.641c-0.263,0-0.496,0.062-0.657,0.201c-0.508,0.436-1.088,1.233-0.182,4.279  C249.588,162.848,249.697,163.682,250.023,165.131z M297.263,459.235c-3.771-2.418-5.365-4.108-7.251-5.849  c-1.885-1.74-0.289-5.222-0.87-9.137c-0.58-3.915-0.725-5.076,2.031-17.257c2.755-12.182,4.205-21.607,4.06-31.904  c-0.145-10.296-3.335-14.646-3.479-18.707c-0.146-4.06,0.146-8.846-0.146-15.227s0.047-9.328,1.207-16.869  c1.161-7.541,2.514-17.982,3.285-31.711c0.773-13.729,0.437-23.105-1.159-30.355c-1.595-7.25-4.061-11.793-1.838-19.43  c2.224-7.636-0.192-13.537-0.481-19.723c-0.29-6.185,0.193-5.802,2.997-9.765c2.804-3.963,6.479-22.623,8.604-29.971  c2.125-7.349,2.707-7.443,2.707-7.443c17.112-1.933,22.815-6.091,26.296-8.411s3.094-1.933,9.281-2.803  c6.188-0.87,12.374-2.32,23.3-8.411c10.927-6.09,24.751-16.531,24.751-16.531c0.613,0.018,1.223,0.029,1.823,0.029  c5.626,0,10.503-0.861,12.771-3.22c2.514-2.61,3.868-2.708,5.126-2.708c1.257,0,2.61,0,5.123,0s4.448-1.353,3.48-3.383  c-0.702-1.471-6.382-1.675-9.453-1.675c-1.165,0-1.955,0.029-1.955,0.029s2.515-1.835,5.8-4.638  c3.285-2.802,4.062-1.547,8.701-4.255c4.641-2.708,3.385-4.543,3.385-4.543c-5.896,1.933-11.021,3.288-17.69,4.543  c-6.671,1.255-10.347,5.028-20.302,9.088c-9.956,4.06-20.11,4.931-36.836,9.764c-16.724,4.833-28.326,13.244-28.326,13.244  c-3.357-0.512-6.418-0.734-9.205-0.734c-18.17,0-24.783,9.438-26.827,9.438c-0.01,0-0.02,0-0.028,0  c-1.72-0.07-5.628-2.955-8.132-5.155c-0.49,0.848-1.1,1.68-1.917,2.532c-4.104,4.269-7.237,5.932-11.171,5.932  c-3.983,0-7.263-1.72-11.316-5.932c-0.814-0.848-1.422-1.677-1.911-2.52c-2.454,2.171-6.388,5.071-8.138,5.144  c-0.009,0-0.018,0-0.025,0c-2.042,0-8.661-9.438-26.829-9.438c-2.789,0-5.847,0.222-9.203,0.734c0,0-11.604-8.411-28.328-13.244  s-26.878-5.703-36.834-9.764c-9.957-4.061-13.632-7.833-20.303-9.088s-11.797-2.61-17.692-4.543c0,0-1.255,1.835,3.386,4.543  c4.642,2.708,5.415,1.453,8.701,4.255c3.285,2.803,5.8,4.638,5.8,4.638s-0.79-0.029-1.955-0.029c-3.071,0-8.751,0.202-9.452,1.675  c-0.969,2.03,0.968,3.383,3.479,3.383s3.865,0,5.123,0s2.612,0.098,5.125,2.708c2.271,2.359,7.146,3.22,12.772,3.22  c0.601,0,1.211-0.011,1.824-0.029c0,0,13.823,10.441,24.75,16.531c10.927,6.091,17.111,7.541,23.301,8.411  c6.188,0.87,5.801,0.483,9.28,2.803c3.48,2.32,9.185,6.478,26.295,8.411c0,0,0.583,0.095,2.708,7.443  c2.126,7.348,5.802,26.008,8.604,29.971c2.803,3.963,3.288,3.58,2.998,9.765c-0.29,6.186-2.705,12.086-0.482,19.723  c2.224,7.636-0.242,12.179-1.838,19.429c-1.595,7.252-1.933,16.627-1.16,30.356c0.772,13.729,2.125,24.17,3.285,31.711  s1.498,10.488,1.208,16.869s0,11.167-0.146,15.227c-0.146,4.062-3.335,8.411-3.479,18.707c-0.146,10.297,1.305,19.724,4.062,31.904  c2.755,12.181,2.608,13.342,2.028,17.257c-0.579,3.915,1.017,7.396-0.87,9.137c-1.885,1.739-3.479,3.431-7.25,5.849  c-3.771,2.417-5.801,3.188-5.221,4.641c0.58,1.45,3.771,2.707,7.733,3.868c1.228,0.359,2.501,0.515,3.75,0.515  c2.781,0,5.438-0.771,7.174-1.771c2.516-1.45,3.578-1.838,6.479-1.838c2.899,0,3.865-0.87,3.962-3.094  c0.099-2.223-1.352-4.157-2.802-6.478c-1.451-2.321-1.737-3.674-1.062-5.704c0.676-2.029,0.386-2.513,0.192-5.511  c-0.192-2.998,0.096-15.952,0.192-22.042c0.097-6.091,2.225-10.438,3.577-15.854c1.354-5.415,1.45-11.794,0.87-17.015  c-0.579-5.221-0.29-5.413,0.291-10.539c0.579-5.125,2.028-12.376,3.479-20.689c1.45-8.312,2.128-13.339,2.03-21.944  s0.786-18.853,1.874-18.853s1.754,10.246,1.656,18.853c-0.099,8.605,0.581,13.632,2.029,21.944c1.45,8.313,2.9,15.564,3.48,20.689  c0.58,5.126,0.87,5.318,0.29,10.539s-0.482,11.6,0.87,17.015c1.354,5.416,3.479,9.765,3.578,15.854  c0.098,6.09,0.385,19.044,0.192,22.042s-0.482,3.48,0.191,5.511c0.676,2.03,0.388,3.383-1.062,5.704  c-1.45,2.319-2.899,4.255-2.803,6.478c0.097,2.224,1.062,3.094,3.964,3.094c2.899,0,3.963,0.388,6.479,1.838  c1.735,1.002,4.392,1.771,7.174,1.771c1.249,0,2.521-0.154,3.75-0.515c3.963-1.161,7.152-2.418,7.732-3.868  C303.062,462.425,301.033,461.652,297.263,459.235z M186.803,207.219c6.104-1.334,5.606-1.562,9.676-0.601  c3.292,0.782,8.442,2.595,19.04,0.494c3.748-0.743,6.015-1.892,8.461-0.421c-0.258-1.006-0.506-1.949-0.728-2.714  c-0.981-3.395-1.593-5.096-1.932-5.923c-16.188-1.984-22.165-5.991-25.77-8.406l-0.36-0.24c-2.499-1.666-2.499-1.666-5.88-2.107  c-0.682-0.091-1.481-0.195-2.438-0.329c-2.262-0.317-4.665-0.729-7.441-1.491c-2.896-0.054-5.973,0.007-9.172,0.245  c-17.361,1.287-27.179,4.004-37.929,3.667c-10.744-0.344-15.505-2.602-22.194-1.457c-6.69,1.144-11.971,1.661-18.17,1.898  c0,0-0.537,2.16,4.756,3.08c5.293,0.925,5.584-0.521,9.637,0.963c4.06,1.482,7.058,2.33,7.058,2.33s-9.925,3.272-10.127,5.51  c-0.201,2.241,2.085,2.837,4.44,1.962c2.354-0.875,3.623-1.346,4.803-1.783c1.181-0.437,2.482-0.818,5.747,0.755  c3.264,1.572,8.881,0.315,14.795-2.09c0,0,16.596,4.979,28.955,6.886C174.395,209.353,180.698,208.559,186.803,207.219z   M437.736,189.833c-6.2-0.237-11.479-0.754-18.17-1.898c-6.688-1.145-11.449,1.113-22.194,1.457  c-10.749,0.337-20.566-2.379-37.929-3.667c-3.198-0.238-6.275-0.299-9.173-0.245c-2.774,0.761-5.18,1.174-7.439,1.491  c-0.957,0.134-1.757,0.238-2.438,0.329c-3.381,0.441-3.381,0.441-5.88,2.107l-0.36,0.24c-3.611,2.422-9.606,6.438-25.768,8.404  c-0.34,0.827-0.952,2.529-1.934,5.925c-0.223,0.766-0.47,1.708-0.728,2.714c2.447-1.471,4.714-0.322,8.46,0.421  c10.598,2.101,15.749,0.288,19.041-0.494c4.069-0.962,3.57-0.734,9.676,0.601c6.104,1.339,12.407,2.132,24.772,0.228  c12.359-1.908,28.955-6.886,28.955-6.886c5.915,2.405,11.53,3.662,14.795,2.09c3.265-1.573,4.567-1.192,5.747-0.755  c1.179,0.438,2.447,0.909,4.802,1.783c2.356,0.875,4.644,0.279,4.441-1.962c-0.201-2.238-10.127-5.51-10.127-5.51  s2.997-0.848,7.058-2.33c4.054-1.484,4.344-0.038,9.637-0.963C438.273,191.994,437.736,189.833,437.736,189.833z M231.287,312.708  c-0.638-11.294-0.507-19.657,0.415-26.357c-0.814,1.767-1.899,3.815-3.469,6.648c-4.495,8.121-9.86,18.127-13.485,30.888  c-3.625,12.764-5.512,17.257-9.716,24.653c-4.205,7.396-4.062,7.396-8.848,12.036c-4.785,4.642-12.761,16.968-17.11,34.225  c-4.351,17.257-4.786,18.707-6.962,22.188c-2.176,3.479-2.755,5.22-5.364,5.801c-2.61,0.58-5.222,1.159-9.861,1.015  c-4.641-0.146-6.091-0.146-8.556-1.015c-2.467-0.87-3.988-1.306-4.568-0.363c-0.58,0.943-0.87,3.916,1.668,5.075  c2.537,1.161,2.319,0.943,3.335,2.611c1.017,1.668,2.538,3.263,5.729,5.146c3.189,1.887,4.494,2.177,6.671,2.394  c2.175,0.218,1.957,0.218,2.973,1.958c1.015,1.739,1.74,3.189,4.713,5.221c2.974,2.031,4.858,2.32,6.381,0.87  c1.523-1.45,2.684-3.771,2.827-7.831c0.146-4.062,0.218-6.018,1.596-8.048c1.378-2.031,4.495-9.209,7.613-15.88  c3.117-6.671,4.932-10.441,9.861-15.951c4.931-5.511,9.788-8.629,12.833-16.75c3.046-8.121,3.048-9.791,5.754-13.076  c2.705-3.285,3.285-4.641,4.445-6.961c1.159-2.319,2.029-2.995,5.801-7.153c2.427-2.676,5.724-6.669,8.47-10.567  C232.923,333.44,231.885,323.361,231.287,312.708z M381.373,422.789c-2.467,0.869-3.916,0.869-8.558,1.015  c-4.641,0.146-7.251-0.435-9.86-1.015c-2.61-0.581-3.19-2.321-5.365-5.801c-2.176-3.48-2.61-4.932-6.962-22.188  c-4.351-17.257-12.326-29.583-17.111-34.225s-4.64-4.642-8.846-12.036c-4.205-7.396-6.091-11.891-9.716-24.653  c-3.626-12.761-8.991-22.767-13.486-30.888c-1.568-2.833-2.653-4.883-3.468-6.647c0.921,6.699,1.052,15.062,0.415,26.356  c-0.6,10.653-1.636,20.732-3.146,30.774c2.746,3.898,6.043,7.893,8.47,10.567c3.771,4.158,4.642,4.834,5.802,7.153  c1.159,2.32,1.74,3.676,4.444,6.961c2.705,3.285,2.707,4.955,5.754,13.076c3.045,8.121,7.902,11.238,12.834,16.75  c4.931,5.51,6.742,9.279,9.86,15.951c3.118,6.671,6.235,13.849,7.613,15.88c1.378,2.029,1.45,3.986,1.595,8.048  c0.146,4.061,1.307,6.381,2.828,7.831c1.523,1.45,3.408,1.16,6.38-0.87c2.975-2.03,3.699-3.48,4.714-5.221  c1.017-1.74,0.798-1.74,2.974-1.958c2.175-0.218,3.479-0.508,6.671-2.394c3.189-1.885,4.714-3.479,5.728-5.146  c1.017-1.668,0.799-1.45,3.336-2.611c2.538-1.159,2.248-4.132,1.668-5.075C385.36,421.483,383.838,421.919,381.373,422.789z"/>
<path d="M431.568,134.951v333.431H98.136V134.951H431.568 M441.568,124.951h-10H98.136h-10v10v333.431v10h10h333.432h10v-10V134.951  V124.951L441.568,124.951z"/>
</svg>