<svg xmlns="http://www.w3.org/2000/svg" xmlns:xlink="http://www.w3.org/1999/xlink" xmlns:a="http://ns.adobe.com/AdobeSVGViewerExtensions/3.0/" version="1.1" x="0px" y="0px" width="100px" height="100px" viewBox="-23 -3.099 100 100" enable-background="new -23 -3.099 100 100" xml:space="preserve">
<defs>
</defs>
<path d="M54,47.957c0-2.562,0-4.682,0-6.903c0-1.077-0.738-2.153-1.815-2.153c-7.674,0-15.347,0-23.021,0  c-1.238-3.068-0.602-6.726,1.212-10.042c3.594,0.894,7.405,0.646,10.792-0.879c3.558-2.066,6.114-5.6,7.317-9.523  c0.143-0.466-0.166-0.919-0.603-1.062c-8.306-2.717-16.194,1.249-19.064,9.309c-2.444,3.893-3.382,8.355-2.238,12.197  c-8.242,0-16.483,0-24.725,0C0.779,38.901,0,39.978,0,41.054c0,2.489,0,4.978,0,7.467c0,1.077,0.779,2.38,1.855,2.38  c16.776,0,33.145,0,50.145,0C53.991,50.901,54.652,49.142,54,47.957z"/>
<path d="M50.044,52.901c-15.185,0-30.37,0-45.555,0c-1.323,0-2.002,1.054-1.812,2.24c1.915,11.966,3.829,23.673,5.744,35.64  c0.13,0.813,1.046,1.12,1.812,1.12c11.208,0,22.465,0,33.332,0c0.947,0.519,2.197,0.347,2.504-0.89  c0.16-0.265,0.212-0.558,0.152-0.842c1.878-11.736,3.757-23.317,5.636-35.059C52.046,53.925,51.367,52.901,50.044,52.901z"/>
<path d="M24.685,29.292c0.556,0.236,1.372,0.222,1.667-0.438c2.379-5.322,2.994-11.385,1.159-16.945  c-0.028-0.085-0.064-0.162-0.104-0.233c-0.007-0.02-0.01-0.039-0.019-0.058c-2.304-5.17-6.87-9.273-12.07-11.48  c-0.556-0.236-1.372-0.222-1.667,0.438C8.48,12.142,12.953,24.315,24.685,29.292z"/>
</svg>