<?xml version="1.0" encoding="utf-8"?>
<!-- Generator: Adobe Illustrator 15.1.0, SVG Export Plug-In . SVG Version: 6.00 Build 0)  -->
<!DOCTYPE svg PUBLIC "-//W3C//DTD SVG 1.1//EN" "http://www.w3.org/Graphics/SVG/1.1/DTD/svg11.dtd">
<svg version="1.1" id="Layer_1" xmlns="http://www.w3.org/2000/svg" xmlns:xlink="http://www.w3.org/1999/xlink" x="0px" y="0px"
	 width="100px" height="80.738px" viewBox="0 0 100 80.738" enable-background="new 0 0 100 80.738" xml:space="preserve">
<path fill="#010101" d="M95.75,32.1c-2.721-3.006-7.02-4.669-11.568-6.432c-2.379-0.921-6.291-2.436-7.433-3.467
	c-0.261-0.703-0.331-1.535,0.384-2.708c0.427-0.703,0.999-1.312,1.607-1.817c1.149,0.616,2.46,0.969,3.854,0.969
	c4.493,0,8.138-3.643,8.138-8.137c0-4.496-3.645-8.139-8.138-8.139c-0.347,0-0.682,0.029-1.015,0.069
	c-5.694,0.221-12.234,4.177-15.729,9.588c-3.242,5.018-3.709,10.707-1.315,16.022c2.469,5.475,8.717,7.894,14.761,10.234
	c2.222,0.86,5.569,2.155,6.46,2.933c0.885,1.012,0.822,2.227,0.492,2.968c-0.74,1.671-2.932,1.92-4.172,1.92
	c-6.898,0-13.596-5.054-20.691-10.405c-0.984-0.745-1.978-1.492-2.976-2.229V14.148c2.26-1.318,3.8-3.738,3.8-6.545
	c0-2.568-1.299-4.803-3.247-6.175c-0.13-0.093-0.266-0.183-0.401-0.269c-0.051-0.032-0.099-0.071-0.151-0.102h-0.015
	C57.267,0.39,55.954,0,54.549,0c-4.186,0-7.575,3.391-7.575,7.576c0,2.822,1.546,5.28,3.836,6.583v14.208
	c-4.482-2.594-9.205-4.411-14.38-4.411c-11.744,0-17.5,9.855-21.308,16.376c-1.067,1.826-2.602,4.456-3.627,5.542
	c-0.186-0.106-0.424-0.262-0.709-0.475c-3.004-2.22-7.24-1.585-9.459,1.42c-2.221,3.003-1.586,7.237,1.418,9.458
	c3.016,2.23,6.04,3.353,9.013,3.353c0.8,0,1.597-0.083,2.39-0.245c6.261-1.286,9.511-6.853,12.652-12.234
	c3.514-6.017,5.917-9.67,9.629-9.67c4.213,0,9.14,3.293,14.38,7.188v18.966c0,5.238-4.261,9.5-9.499,9.5s-9.5-4.262-9.5-9.5
	c0-1.822,0.174-3.098,1.17-4.546c0.622-0.904,1.259-1.136,1.752-1.187c1.533-0.16,2.542,2.945,2.542,2.945V39.021L26.768,54.688
	c-1.609,2.607-2.557,5.667-2.557,8.949c0,9.429,7.669,17.101,17.099,17.101c9.431,0,17.099-7.672,17.099-17.101V50.321
	c6.878,4.899,14.585,9.308,23.667,9.308c7.587,0,13.768-3.722,16.534-9.958C101.219,43.798,100.093,36.901,95.75,32.1z M54.762,5.44
	c1.094,0,1.981,0.886,1.981,1.981c0,1.093-0.888,1.981-1.981,1.981c-1.095,0-1.981-0.888-1.981-1.981
	C52.78,6.326,53.667,5.44,54.762,5.44z"/>
<g id="Layer_2">
</g>
</svg>
