<svg xmlns="http://www.w3.org/2000/svg" xmlns:xlink="http://www.w3.org/1999/xlink" version="1.1" id="Capa_1" x="0px" y="0px" width="100px" height="100px" viewBox="0 0 100 100" enable-background="new 0 0 100 100" xml:space="preserve">
<path d="M85.769,25.545c-16.021-10.841-27.102-6.746-37.883-1.416c-9.817,4.852-13.551,4.608-13.551,4.608  c0-5.24-5.592-2.766-5.592-2.766s-0.903-2.102-3.433-2.078c-5.059,0.048-7.417,10.806-7.417,10.806  C6.631,38.072,1.09,51.014,1.09,51.014s-1.51,1.187-0.875,2.327c0.571,1.022,2.047,0.48,2.047,0.48  c13.221,5.745,23.218-0.06,23.218-0.06c1.732,0.655,3.614-0.271,3.614-0.271c3.043,3.722,6.3,4.953,9.715,5.112  c0.616,1.741,0.947,5.9-2.842,4.722c-5.382-1.674-8.306-0.572-9.609,0.974c-0.873,1.037-0.606,2.13,3.279,2.051h9.695  c0,0,4.349,0.302,4.546-2.641c0.19-2.845,2.427-6.09,5.797-6.449c5.242-0.787,10.692-0.823,16.188,4  c0.02,0.017,0.038,0.031,0.057,0.047c1.205,1.094,0.955,1.941-0.006,2.215c-0.44,0.095-0.995,0.061-1.689-0.155  c-5.383-1.673-8.307-0.571-9.61,0.975c-0.873,1.037-0.605,2.088,3.279,2.009h14.045c9.271,4.625,19.866,0.896,23.176-3.69  c0.082,0.369,0.155,0.752,0.209,1.151c0.486,3.709-0.839,6.729-3.939,8.977c-6.264,4.542-13.742,2.427-21.654,0.184  c-1.154-0.326-2.312-0.653-3.467-0.961c-9.131-2.428-20.089-4.095-34.646,6.944c-0.567,0.429-0.677,1.237-0.249,1.804  c0.43,0.568,1.239,0.679,1.806,0.249c13.631-10.339,23.887-8.779,32.426-6.507c1.142,0.305,2.285,0.628,3.426,0.95  c5.8,1.643,11.739,3.325,17.306,2.264c2.261-0.432,4.461-1.316,6.564-2.842c5.779-4.189,5.703-10.163,4.327-14.355  C102.576,53.655,100.646,35.611,85.769,25.545z"/>
</svg>