<svg xmlns="http://www.w3.org/2000/svg" xmlns:xlink="http://www.w3.org/1999/xlink" version="1.1" id="Your_Icon" x="0px" y="0px" width="100px" height="100px" viewBox="0 0 100 100" enable-background="new 0 0 100 100" xml:space="preserve">
<path fill="#000000" stroke="#231F20" stroke-width="20" stroke-miterlimit="10" d="M49.751,74.863"/>
<path fill="#000000" stroke="#231F20" stroke-width="20" stroke-miterlimit="10" d="M49.751,24.864"/>
<path fill="#000000" d="M35.312,100h-6.42c0-6.148,2.001-12.09,5.787-17.184c3.641-4.898,8.655-8.666,14.502-10.896  C58.701,68.193,64.869,59.584,64.869,50c0-9.52-6.494-18.394-16.159-22.082C36.661,23.201,28.891,12.247,28.891,0h6.42  c0,9.584,6.168,18.192,15.714,21.929c5.821,2.221,10.836,5.989,14.477,10.887C69.288,37.91,71.289,43.852,71.289,50  c0,12.246-7.77,23.201-19.793,27.908C41.805,81.605,35.312,90.48,35.312,100z"/>
<path fill="#000000" d="M71.289,100h-6.42c0-9.52-6.494-18.395-16.159-22.082C36.661,73.201,28.891,62.246,28.891,50  c0-6.148,2.001-12.09,5.787-17.184c3.641-4.898,8.655-8.666,14.502-10.897C58.7,18.192,64.869,9.584,64.869,0h6.42  c0,12.247-7.77,23.201-19.793,27.908C41.805,31.606,35.312,40.48,35.312,50c0,9.585,6.168,18.193,15.714,21.93  c5.821,2.221,10.836,5.988,14.477,10.887C69.288,87.91,71.289,93.852,71.289,100z"/>
<path fill="#000000" d="M55.176,36.001c-1.482-1.268-3.17-2.347-5.021-3.182l-0.063-0.028c-1.876,0.84-3.585,1.929-5.083,3.21"/>
<path fill="#000000" d="M60.153,42.422c-0.54-1.124-1.196-2.199-1.956-3.21l-16.211,0c-0.761,1.011-1.417,2.087-1.958,3.21"/>
<path fill="#000000" d="M61.078,55.264c0.336-1.045,0.575-2.118,0.709-3.21l-23.394-0.001c0.134,1.092,0.373,2.166,0.709,3.211"/>
<path fill="#000000" d="M57.48,61.686c0.85-1.003,1.59-2.079,2.211-3.211H40.489c0.622,1.132,1.364,2.208,2.213,3.211"/>
<path fill="#000000" d="M46.134,64.895c1.21,0.898,2.536,1.678,3.957,2.314l0.063-0.029c1.398-0.631,2.703-1.4,3.896-2.285"/>
<path fill="#000000" d="M61.078,5.655c0.336-1.044,0.575-2.118,0.709-3.21l-23.394,0c0.134,1.092,0.373,2.166,0.709,3.21"/>
<path fill="#000000" d="M57.48,12.076c0.85-1.002,1.59-2.078,2.211-3.21H40.489c0.622,1.132,1.364,2.208,2.213,3.211"/>
<path fill="#000000" d="M46.134,15.286c1.21,0.897,2.536,1.676,3.957,2.313l0.063-0.028c1.398-0.63,2.703-1.4,3.896-2.285"/>
<path fill="#000000" d="M38.308,48.843c0.075-1.088,0.255-2.162,0.532-3.21h22.501c0.281,1.063,0.462,2.154,0.536,3.258"/>
<path fill="#000000" d="M55.176,85.553c-1.482-1.268-3.17-2.346-5.021-3.182l-0.063-0.027c-1.876,0.84-3.585,1.93-5.083,3.211"/>
<path fill="#000000" d="M60.153,91.975c-0.54-1.123-1.196-2.199-1.956-3.211H41.986c-0.761,1.012-1.417,2.088-1.958,3.211"/>
<path fill="#000000" d="M38.308,98.395c0.075-1.088,0.255-2.162,0.532-3.209h22.501c0.281,1.062,0.462,2.152,0.536,3.258"/>
<path fill="#000000" d="M37.243,0"/>
</svg>